<svg width="49" height="49" viewBox="0 0 49 49" fill="none" xmlns="http://www.w3.org/2000/svg">
<path d="M41.0488 48.2314H8.75479C4.35106 48.2314 0.786133 44.6664 0.786133 40.2627V7.96866C0.786133 3.56493 4.35106 0 8.75479 0H40.8391C45.2429 0 48.8078 3.56493 48.8078 7.96866V40.053C49.0175 44.6664 45.4526 48.2314 41.0488 48.2314ZM8.75479 2.09702C5.39957 2.09702 2.88315 4.82314 2.88315 7.96866V40.053C2.88315 43.4082 5.60927 45.9246 8.75479 45.9246H40.8391C44.1944 45.9246 46.7108 43.1985 46.7108 40.053V7.96866C46.7108 4.61344 43.9847 2.09702 40.8391 2.09702H8.75479Z" fill="#AD8200"/>
<path d="M19.6592 36.4881C16.304 36.4881 13.1584 35.6493 10.2226 33.7619C9.80321 33.5522 9.59351 32.9231 9.80321 32.5037C10.0129 32.0843 10.4323 31.6649 10.8517 31.8746C12.739 32.0843 14.8361 31.8746 16.5137 31.0358C14.8361 30.197 13.3681 28.7291 12.9487 27.0515C12.739 26.6321 12.9487 26.4224 13.1584 26.003C11.6905 24.7448 10.8517 22.8575 10.8517 20.9702C10.8517 20.5508 11.0614 20.1313 11.2711 20.1313C11.2711 20.1313 11.4808 20.1313 11.4808 19.9216C11.2711 18.8731 11.0614 17.8246 11.0614 16.7761C11.0614 15.5179 11.4808 14.4694 11.9002 13.4209C12.1099 13.0015 12.3196 12.7918 12.739 12.7918C13.1584 12.7918 13.3681 13.0015 13.5778 13.2112C16.0943 16.147 19.6592 18.244 23.4338 18.6634V18.4537C23.4338 14.6791 26.5793 11.7433 30.1443 11.7433C31.8219 11.7433 33.4995 12.3724 34.7577 13.4209C35.8062 13.2112 36.645 12.7918 37.4838 12.3724C37.9032 12.1627 38.3226 12.1627 38.742 12.3724C39.1614 12.5821 39.1614 13.0015 39.1614 13.4209C39.1614 13.6306 38.9517 14.05 38.742 14.2597C39.1614 14.2597 39.3711 14.2597 39.7905 14.6791C40.0002 15.0985 40.2099 15.5179 39.7905 15.9373C38.9517 16.9858 38.1129 18.0343 37.0644 18.8731V19.0828C37.0644 27.6806 30.5637 36.4881 19.6592 36.4881ZM15.0458 33.5522C16.5137 33.9717 17.9816 34.1814 19.6592 34.1814C29.3055 34.1814 34.9674 26.4224 34.9674 19.0828V18.4537C34.9674 18.0343 35.1771 17.8246 35.3868 17.6149C35.3868 17.6149 35.5965 17.6149 35.5965 17.4052C35.1771 17.4052 34.7577 17.1955 34.548 16.7761C34.3383 16.3567 34.548 15.9373 34.7577 15.7276H34.548C34.1286 15.7276 33.9189 15.7276 33.4995 15.5179C32.6607 14.6791 31.4025 14.05 30.1443 14.05C27.6278 14.05 25.5308 16.147 25.5308 18.6634C25.5308 19.0828 25.5308 19.2925 25.7405 19.7119C25.7405 20.1313 25.7405 20.3411 25.5308 20.5508C25.3211 20.7605 24.9017 20.9702 24.692 20.9702C20.2883 20.7605 16.304 18.8731 13.1584 15.9373V16.7761C13.1584 18.244 13.9972 19.7119 15.2555 20.5508C15.6749 20.7605 15.8846 21.3896 15.6749 21.809C15.4652 22.2284 15.0458 22.6478 14.6264 22.4381C14.2069 22.4381 13.7875 22.4381 13.3681 22.2284C13.9972 23.6963 15.2555 24.9545 16.9331 25.1642C17.3525 25.1642 17.7719 25.5836 17.7719 26.2127C17.7719 26.6321 17.5622 27.0515 16.9331 27.2612C16.5137 27.2612 16.304 27.4709 15.8846 27.4709C16.7234 28.5194 17.9816 29.1485 19.4495 29.1485C19.8689 29.1485 20.2883 29.3582 20.498 29.7776C20.7077 30.197 20.498 30.6164 20.0786 31.0358C18.6107 32.5037 16.9331 33.1328 15.0458 33.5522Z" fill="#AD8200"/>
</svg>
