<svg width="144" height="144" viewBox="0 0 144 144" fill="none" xmlns="http://www.w3.org/2000/svg">
<path d="M144 72C144 111.765 111.765 144 72 144C32.2355 144 0 111.765 0 72C0 32.2355 32.2355 0 72 0C111.765 0 144 32.2355 144 72ZM11.6303 72C11.6303 105.341 38.6588 132.37 72 132.37C105.341 132.37 132.37 105.341 132.37 72C132.37 38.6588 105.341 11.6303 72 11.6303C38.6588 11.6303 11.6303 38.6588 11.6303 72Z" fill="url(#paint0_linear_29_140)"/>
<g clip-path="url(#clip0_29_140)">
<path d="M105.531 53.8457L62.2188 97.1563L40.5625 75.502" stroke="#531B8A" stroke-width="8" stroke-linecap="round" stroke-linejoin="round"/>
</g>
<defs>
<linearGradient id="paint0_linear_29_140" x1="72" y1="0" x2="72" y2="144" gradientUnits="userSpaceOnUse">
<stop offset="0.246643" stop-color="#531B8A"/>
<stop offset="1" stop-color="#9747FF"/>
</linearGradient>
<clipPath id="clip0_29_140">
<rect width="99" height="99" fill="white" transform="translate(22 26)"/>
</clipPath>
</defs>
</svg>
