<svg width="50" height="50" viewBox="0 0 50 50" fill="none" xmlns="http://www.w3.org/2000/svg">
<path d="M36.2312 48.8929H14.2599C10.9301 48.8929 7.73665 47.5702 5.38212 45.2156C3.02759 42.8611 1.70483 39.6677 1.70483 36.3379V14.3666C1.70483 11.0368 3.02759 7.84333 5.38212 5.48881C7.73665 3.13428 10.9301 1.81152 14.2599 1.81152H36.2312C39.561 1.81152 42.7544 3.13428 45.1089 5.48881C47.4635 7.84333 48.7862 11.0368 48.7862 14.3666V36.3379C48.7862 39.6677 47.4635 42.8611 45.1089 45.2156C42.7544 47.5702 39.561 48.8929 36.2312 48.8929Z" stroke="#AD8200" stroke-width="2" stroke-miterlimit="10"/>
<path d="M25.2452 36.3375C31.3124 36.3375 36.2308 31.4191 36.2308 25.3519C36.2308 19.2847 31.3124 14.3662 25.2452 14.3662C19.178 14.3662 14.2595 19.2847 14.2595 25.3519C14.2595 31.4191 19.178 36.3375 25.2452 36.3375Z" stroke="#AD8200" stroke-width="2" stroke-miterlimit="10"/>
<path d="M39.3698 12.797C40.2365 12.797 40.9392 12.0943 40.9392 11.2276C40.9392 10.3608 40.2365 9.6582 39.3698 9.6582C38.5031 9.6582 37.8004 10.3608 37.8004 11.2276C37.8004 12.0943 38.5031 12.797 39.3698 12.797Z" stroke="#AD8200" stroke-width="2" stroke-miterlimit="10"/>
</svg>
