<svg width="50" height="50" viewBox="0 0 50 50" fill="none" xmlns="http://www.w3.org/2000/svg">
<path d="M36.2312 48.893H14.2599C10.9301 48.893 7.73665 47.5703 5.38212 45.2157C3.02759 42.8612 1.70483 39.6678 1.70483 36.338V14.3667C1.70483 11.0369 3.02759 7.84346 5.38212 5.48893C7.73665 3.1344 10.9301 1.81165 14.2599 1.81165H36.2312C39.561 1.81165 42.7544 3.1344 45.1089 5.48893C47.4635 7.84346 48.7862 11.0369 48.7862 14.3667V36.338C48.7862 39.6678 47.4635 42.8612 45.1089 45.2157C42.7544 47.5703 39.561 48.893 36.2312 48.893Z" stroke="#AD8200" stroke-width="2" stroke-miterlimit="10"/>
<path d="M25.2454 36.338C31.3126 36.338 36.2311 31.4196 36.2311 25.3524C36.2311 19.2851 31.3126 14.3667 25.2454 14.3667C19.1782 14.3667 14.2598 19.2851 14.2598 25.3524C14.2598 31.4196 19.1782 36.338 25.2454 36.338Z" stroke="#AD8200" stroke-width="2" stroke-miterlimit="10"/>
<path d="M39.3699 12.7973C40.2367 12.7973 40.9393 12.0947 40.9393 11.2279C40.9393 10.3612 40.2367 9.65857 39.3699 9.65857C38.5032 9.65857 37.8005 10.3612 37.8005 11.2279C37.8005 12.0947 38.5032 12.7973 39.3699 12.7973Z" stroke="#AD8200" stroke-width="2" stroke-miterlimit="10"/>
</svg>
