<svg width="173" height="170" viewBox="0 0 173 170" fill="none" xmlns="http://www.w3.org/2000/svg">
<g clip-path="url(#clip0_14_1860)">
<path d="M71.4529 96.2981C70.3639 94.8584 69.3285 93.5242 68.327 92.1643C67.1054 90.505 66.4537 88.612 66.9079 86.5907C67.2577 85.037 66.9615 83.8653 65.8923 82.7876C65.5989 82.4911 65.3703 82.1348 65.0515 81.7299C53.1799 88.2956 40.8144 89.4844 28.119 84.7462C17.9823 80.963 10.2917 74.0952 5.17116 64.4619C-5.05294 45.2297 0.276347 21.5813 17.6833 8.52129C34.8476 -4.35629 58.8618 -2.48039 74.1302 13.0714C82.5375 21.6355 86.7044 32.0755 86.6141 44.1492C86.5238 56.1629 82.0494 66.3863 73.5632 75.2156C74.2064 75.9369 74.7876 76.681 75.4731 77.3082C75.7693 77.579 76.28 77.7443 76.6891 77.7329C79.5836 77.6531 81.8886 78.7935 83.4713 81.2082C84.5208 82.8104 85.8044 83.4576 87.737 83.7883C97.2473 85.4133 106.732 87.2008 116.18 89.1594C119.352 89.8151 122.413 91.0667 125.476 92.1814C129.751 93.738 132.885 96.874 135.655 100.326C139.678 105.335 143.524 110.493 147.431 115.599C148.199 116.602 148.89 117.663 149.759 118.897C150.176 118.113 150.503 117.475 150.856 116.847C151.942 114.917 154.038 114.176 156.01 115.168C160.967 117.66 165.902 120.194 170.816 122.769C172.924 123.872 173.57 126.007 172.486 128.168C165.893 141.343 159.286 154.508 152.656 167.662C151.505 169.946 149.4 170.599 147.118 169.444C142.418 167.066 137.732 164.66 133.046 162.257C130.416 160.908 129.767 158.853 131.099 156.167C131.387 155.589 131.672 155.007 132.022 154.3C121.527 153.524 112.513 149.892 105.632 141.588C103.192 143.304 100.588 143.945 97.7354 142.774C94.9339 141.622 93.4584 139.424 92.9054 136.502C86.6395 139.144 80.3736 134.301 81.8463 127.008C79.1097 127.154 76.6919 126.427 74.8863 124.246C73.1033 122.093 72.745 119.613 73.4165 116.905C72.0595 116.713 70.7222 116.742 69.5486 116.317C64.7863 114.598 63.0118 109.005 65.8104 104.697C67.6245 101.906 69.5203 99.1718 71.4585 96.2981H71.4529ZM87.4718 86.337C87.6834 86.6991 87.7765 86.9015 87.9062 87.0754C92.5669 93.3246 97.2247 99.5766 101.902 105.812C102.23 106.248 102.692 106.607 103.141 106.926C108.402 110.652 113.672 114.361 118.937 118.079C119.242 118.293 119.693 118.473 119.797 118.766C119.975 119.282 120.139 119.983 119.919 120.397C119.752 120.708 118.945 120.862 118.485 120.77C117.978 120.671 117.523 120.229 117.069 119.907C107.031 112.828 96.9906 105.746 86.9583 98.6558C83.5813 96.2696 79.5695 96.7257 77.2392 99.7876C74.9314 102.821 75.4788 106.778 78.5567 109.475C85.3502 115.428 92.1889 121.329 98.8864 127.39C100.551 128.898 102.117 130.749 103.101 132.756C109.037 144.866 118.832 150.782 131.934 151.669C132.975 151.74 133.503 151.46 133.971 150.517C138.606 141.191 143.287 131.886 147.97 122.584C148.314 121.902 148.407 121.375 147.891 120.688C143.538 114.917 139.227 109.113 134.899 103.323C130.797 97.8319 125.493 94.2996 118.858 92.4978C110.555 90.2428 102.162 88.5407 93.6813 87.2179C91.6726 86.9043 89.6582 86.6449 87.4661 86.3341L87.4718 86.337ZM83.6913 49.5402C86.7749 26.9411 71.2413 6.03815 49.1004 2.99052C26.6209 -0.105575 5.91597 15.6229 2.93676 38.1794C-0.206081 61.9731 16.82 81.8839 38.1286 84.6749C60.0721 87.5486 80.6529 71.823 83.6942 49.5402H83.6913ZM154.586 117.315C154.479 117.232 154.374 117.147 154.267 117.064C153.759 117.626 153.096 118.108 152.766 118.76C146.272 131.612 139.814 144.487 133.353 157.356C132.665 158.725 132.814 159.218 134.194 159.93C138.581 162.2 142.982 164.446 147.375 166.707C149.547 167.825 149.778 167.745 150.882 165.547C157.218 152.929 163.554 140.313 169.894 127.698C170.78 125.936 170.653 125.509 168.909 124.613C164.471 122.335 160.031 120.063 155.59 117.791C155.26 117.623 154.921 117.472 154.586 117.312V117.315ZM94.6348 100.931C94.6969 100.874 94.7618 100.814 94.8239 100.757C94.7618 100.631 94.7195 100.495 94.6377 100.386C90.1491 94.3737 85.6718 88.3526 81.1635 82.3543C79.8206 80.5696 77.9897 79.9538 75.8399 80.4755C75.1289 80.6494 74.6352 80.6637 74.1923 79.951C73.5067 78.8448 72.7196 77.8014 72.1864 77.0345C70.4796 78.2461 68.9646 79.3209 67.2577 80.5325C68.0195 81.4904 68.7812 82.494 69.5965 83.4519C70.1015 84.0449 70.2482 84.5466 69.8448 85.3164C68.9646 86.9927 69.1056 88.746 70.1551 90.2684C71.8817 92.7744 73.7465 95.1834 75.5634 97.6466C79.6175 93.7066 84.8791 93.5127 89.3056 97.1505C90.9842 98.5304 92.8518 99.6764 94.632 100.928L94.6348 100.931ZM96.1216 128.357C93.4951 126.053 90.9814 123.844 88.3774 121.56C87.2207 123.299 86.1119 124.913 85.0625 126.563C83.4656 129.075 84.075 132.137 86.4533 133.759C88.8316 135.384 91.8588 134.808 93.5741 132.345C94.4543 131.082 95.2386 129.748 96.1216 128.357ZM72.9876 98.5817C71.1623 101.313 69.2664 103.916 67.6273 106.673C66.1434 109.167 67.3057 112.414 69.9125 113.723C72.4826 115.014 75.459 113.94 76.6496 111.268C73.6704 108.46 72.5532 105.053 73.7917 101.073C74.1443 99.9387 73.8396 99.3286 72.9876 98.5788V98.5817ZM86.411 119.812C83.8127 117.523 81.313 115.319 78.7119 113.03C77.7893 114.447 76.8894 115.647 76.1841 116.956C74.9089 119.322 75.8089 122.287 78.1223 123.701C80.4498 125.124 83.3556 124.479 84.8734 122.196C85.3643 121.457 85.8355 120.708 86.411 119.812ZM98.0485 130.09C97.3827 131.151 96.8015 132.057 96.2429 132.975C94.8888 135.193 95.3345 137.896 97.3235 139.575C99.3124 141.254 101.942 141.203 104.03 139.347C101.761 136.527 101.008 132.707 98.0485 130.09Z" fill="#AD8200"/>
<path d="M31.1406 31.1462C31.1406 25.3589 36.594 20.6691 43.3227 20.6691C50.0513 20.6691 55.5047 25.3589 55.5047 31.1462" stroke="#AD8200" stroke-width="2" stroke-linecap="round" stroke-linejoin="round"/>
<path d="M62.5125 34.1996C62.5125 32.9594 61.7 31.953 60.6985 31.953H60.6138C60.6618 32.1384 60.6928 32.3322 60.6928 32.5346V44.7565C60.6928 46.028 59.6462 47.0572 58.3569 47.0572H46.725V50.4469C46.725 51.4533 45.8983 52.2658 44.8742 52.2658H41.7737C40.7524 52.2658 39.923 51.4504 39.923 50.4469V47.0572H28.2911C27.0018 47.0572 25.9551 46.028 25.9551 44.7565V32.5346C25.9551 32.3351 25.9834 32.1412 26.0341 31.953H25.9495C24.948 31.953 24.1355 32.9594 24.1355 34.1996L19.156 59.9063C19.156 61.1464 20.1773 62.1528 21.4412 62.1528H65.2124C66.4735 62.1528 67.4976 61.1464 67.4976 59.9063L62.5182 34.1996H62.5125Z" fill="#AD8200"/>
<path d="M41.7738 41.7174H44.8743C45.8956 41.7174 46.725 42.5898 46.725 43.6646V45.9026H57.6234C58.5996 45.9026 59.3895 45.0701 59.3895 44.0438V32.9993C59.3895 31.973 58.5996 31.1405 57.6234 31.1405H28.957C27.9809 31.1405 27.1909 31.973 27.1909 32.9993V44.0438C27.1909 45.0701 27.9809 45.9026 28.957 45.9026H39.9231V43.6646C39.9231 42.5898 40.7525 41.7174 41.7738 41.7174Z" fill="#AD8200"/>
<path d="M44.547 42.9804H42.0982C41.5092 42.9804 41.0317 43.4629 41.0317 44.058V50.0506C41.0317 50.6458 41.5092 51.1283 42.0982 51.1283H44.547C45.1359 51.1283 45.6134 50.6458 45.6134 50.0506V44.058C45.6134 43.4629 45.1359 42.9804 44.547 42.9804Z" fill="#AD8200"/>
</g>
<defs>
<clipPath id="clip0_14_1860">
<rect width="173" height="170" fill="white"/>
</clipPath>
</defs>
</svg>
