<svg width="148" height="148" viewBox="0 0 148 148" fill="none" xmlns="http://www.w3.org/2000/svg">
<path d="M53.6501 105.758C66.6001 105.758 78.6251 101.133 88.1834 92.5L93.7334 98.05L82.9418 108.842L97.4334 123.333L101.75 119.017L125.8 143.067C127.65 144.917 130.425 146.15 133.2 146.15C135.975 146.15 138.75 144.917 140.6 143.067L143.683 139.983C147.692 135.975 147.692 129.192 143.683 125.183L119.325 101.75L123.642 97.4333L109.15 82.9417L98.3584 93.7333L92.5001 88.1833C101.133 78.625 105.758 66.6 105.758 53.65C105.758 39.775 100.208 26.5167 90.6501 16.9583C80.7834 7.09167 67.8334 1.85 53.9584 1.85C40.0834 1.85 26.5168 7.09167 16.9584 16.65C7.09176 26.5167 1.8501 39.4667 1.8501 53.3417C1.8501 67.2167 7.4001 80.475 16.9584 90.0333C26.5168 100.208 39.7751 105.758 53.6501 105.758ZM115.008 106.067L139.058 130.117C140.6 131.658 140.6 134.433 139.058 136.283L135.975 139.367C134.433 140.908 131.658 140.908 129.808 139.367L105.758 115.317L110.383 110.692L115.008 106.067ZM115.008 97.4333L106.375 106.067L97.7418 114.7L91.8834 108.842L109.458 91.2667L115.008 97.4333ZM21.2751 21.275C29.9084 12.3333 41.3168 7.70833 53.6501 7.70833C65.9834 7.70833 77.3918 12.3333 86.0251 21.275C94.6584 30.2167 99.5918 41.625 99.5918 53.65C99.5918 65.9833 94.9668 77.3917 86.0251 86.025C77.0834 94.6583 65.6751 99.5917 53.6501 99.5917C41.6251 99.5917 29.9084 94.9667 21.2751 86.025C12.6418 77.0833 7.70843 65.675 7.70843 53.65C7.70843 41.3167 12.6418 29.9083 21.2751 21.275Z" fill="#AD8200"/>
<path d="M52.7251 89.4167L53.6501 89.725L54.5751 89.4167C60.4334 87.5667 65.9834 84.175 70.6084 79.2417C78.0084 71.225 82.0168 60.7417 82.0168 49.3333V33.3H78.9334C65.3668 33.3 56.1168 22.2 56.1168 22.2L53.6501 19.425L51.1834 22.2C51.1834 22.2 41.6251 33.3 28.3668 33.3H25.2834V49.3333C25.2834 60.7417 29.2918 71.5333 36.6918 79.2417C41.3168 84.175 46.8668 87.5667 52.7251 89.4167ZM31.4501 39.1583C41.9334 38.2333 49.9501 32.0667 53.6501 28.3667C57.3501 31.7583 65.3668 37.925 75.8501 39.1583V49.3333C75.8501 59.2 72.4584 68.45 65.9834 75.2333C62.2834 79.2417 58.2751 82.0167 53.6501 83.5583C49.0251 82.0167 45.0168 79.2417 41.3168 75.2333C34.8418 68.45 31.4501 59.2 31.4501 49.3333V39.1583Z" fill="#AD8200"/>
<path d="M69.375 49.025L65.0584 44.7083L49.9501 59.5083L42.2417 51.8L37.925 56.1167L49.9501 68.1417L69.375 49.025Z" fill="#AD8200"/>
</svg>
