<svg width="135" height="135" viewBox="0 0 135 135" fill="none" xmlns="http://www.w3.org/2000/svg">
<path d="M67.6871 92.8928C76.6856 92.8928 83.9802 85.5982 83.9802 76.5997C83.9802 67.6013 76.6856 60.3066 67.6871 60.3066C58.6887 60.3066 51.394 67.6013 51.394 76.5997C51.394 85.5982 58.6887 92.8928 67.6871 92.8928Z" fill="#BBBBBB"/>
<path d="M116.567 37.0308H101.302C100.325 37.0311 99.3721 36.7236 98.5792 36.1521C97.7862 35.5806 97.1933 34.774 96.8845 33.8467L95.4134 29.4289C94.7949 27.5751 93.6087 25.9629 92.0229 24.8208C90.4371 23.6787 88.5322 23.0645 86.5779 23.0653H48.7919C46.8378 23.0658 44.9335 23.6811 43.3485 24.8241C41.7636 25.967 40.5785 27.5797 39.961 29.4336L38.49 33.8467C38.1811 34.774 37.5882 35.5806 36.7953 36.1521C36.0023 36.7236 35.0496 37.0311 34.0722 37.0308H18.8079C16.3386 37.0308 13.9705 38.0117 12.2245 39.7578C10.4785 41.5038 9.49756 43.8719 9.49756 46.3412V102.203C9.49756 104.672 10.4785 107.041 12.2245 108.787C13.9705 110.533 16.3386 111.514 18.8079 111.514H116.567C119.036 111.514 121.404 110.533 123.15 108.787C124.896 107.041 125.877 104.672 125.877 102.203V46.3412C125.877 43.8719 124.896 41.5038 123.15 39.7578C121.404 38.0117 119.036 37.0308 116.567 37.0308ZM67.6872 102.203C53.5727 102.203 42.0838 90.7143 42.0838 76.5998C42.0838 62.4853 53.5727 50.9963 67.6872 50.9963C81.8017 50.9963 93.2907 62.4853 93.2907 76.5998C93.2907 90.7143 81.8017 102.203 67.6872 102.203ZM95.6182 55.6515C94.3836 55.6515 93.1996 55.1611 92.3265 54.288C91.4535 53.415 90.9631 52.231 90.9631 50.9963C90.9631 49.7617 91.4535 48.5777 92.3265 47.7046C93.1996 46.8316 94.3836 46.3412 95.6182 46.3412C96.8529 46.3412 98.0369 46.8316 98.91 47.7046C99.783 48.5777 100.273 49.7617 100.273 50.9963C100.273 52.231 99.783 53.415 98.91 54.288C98.0369 55.1611 96.8529 55.6515 95.6182 55.6515Z" fill="#BBBBBB"/>
<path d="M25.7908 32.3756H16.4804C15.8631 32.3756 15.2711 32.1304 14.8346 31.6939C14.3981 31.2574 14.1528 30.6654 14.1528 30.048C14.1528 29.4307 14.3981 28.8387 14.8346 28.4022C15.2711 27.9657 15.8631 27.7205 16.4804 27.7205H25.7908C26.4081 27.7205 27.0001 27.9657 27.4366 28.4022C27.8731 28.8387 28.1183 29.4307 28.1183 30.048C28.1183 30.6654 27.8731 31.2574 27.4366 31.6939C27.0001 32.1304 26.4081 32.3756 25.7908 32.3756Z" fill="#BBBBBB"/>
</svg>
