<svg width="106" height="106" viewBox="0 0 106 106" fill="none" xmlns="http://www.w3.org/2000/svg">
<path d="M46.375 6.625C21.6969 6.625 1.65625 26.6656 1.65625 51.3438C1.65625 76.0219 21.6969 96.0625 46.375 96.0625C48.1306 96.0625 49.8531 95.93 51.5558 95.7312L51.6154 95.7909L51.6816 95.718C73.2129 93.1641 90.0371 75.2898 90.9977 53.3114L96.8277 59.1414C97.1381 59.4509 97.5586 59.6246 97.997 59.6246C98.4354 59.6246 98.8559 59.4509 99.1663 59.1414L103.86 54.4542C104.171 54.1436 104.345 53.7224 104.345 53.2832C104.345 52.844 104.171 52.4228 103.86 52.1123L88.7121 36.9741C88.1063 35.2059 87.3893 33.4778 86.5656 31.8C87.2175 30.0368 87.5604 28.1744 87.5792 26.2946C87.5731 21.9021 85.8254 17.6912 82.7194 14.5853C79.6134 11.4793 75.4026 9.73163 71.0101 9.7255C69.0212 9.73866 67.0513 10.1136 65.1966 10.8319C60.9308 8.84752 56.3768 7.55385 51.7048 6.99931L51.5127 6.83369V6.80719L51.3802 6.96288C49.7339 6.77737 48.071 6.6515 46.375 6.6515V6.625ZM48.0312 10.0269C48.7766 10.0601 49.5186 10.0899 50.2506 10.1594C52.7184 12.3126 55.0206 14.7274 57.0512 17.4436C55.3512 20.0821 54.4431 23.1526 54.4343 26.2913C54.4343 26.3642 54.4476 26.4304 54.4509 26.5H48.0312V10.0269ZM44.7188 10.0468V26.5H30.3425C33.3767 20.0737 37.5306 14.5054 42.4994 10.1561C43.2281 10.0899 43.9767 10.0766 44.7188 10.0468ZM56.0343 11.1068C57.8893 11.5507 59.6879 12.1337 61.4336 12.8161C60.6154 13.4024 59.8469 14.0483 59.148 14.7704C58.167 13.503 57.128 12.2816 56.0343 11.1101V11.1068ZM36.6628 11.1532C32.4888 15.6705 29.1058 20.8587 26.6557 26.5H13.3162C19.0804 18.8288 27.3347 13.4028 36.6628 11.1532ZM71.0134 13.038C72.755 13.0349 74.48 13.3758 76.0896 14.0409C77.6991 14.7061 79.1615 15.6825 80.3929 16.9142C81.6242 18.1458 82.6003 19.6084 83.265 21.2182C83.9298 22.8279 84.2702 24.553 84.2667 26.2946C84.2667 26.6921 84.1872 27.0698 84.1507 27.4639C80.4638 21.6504 75.4909 16.7613 69.6155 13.1738C70.0793 13.1241 70.5331 13.038 71.0134 13.038ZM65.137 14.4524C70.7654 17.327 75.664 21.4473 79.4603 26.5H66.1076C64.7295 23.3525 63.0663 20.3377 61.1388 17.4933C62.2643 16.2328 63.6217 15.2005 65.137 14.4524ZM59.1082 20.5276C60.3239 22.4289 61.4502 24.4065 62.4406 26.5H57.77C57.77 26.4304 57.7501 26.3642 57.7501 26.2913C57.7501 24.2144 58.2603 22.2766 59.1082 20.5276ZM11.0637 29.8125H25.3274C22.999 36.1879 21.7323 42.902 21.5776 49.6875H5.05156C5.3233 42.6574 7.3933 35.8145 11.0637 29.8125ZM28.938 29.8125H44.7188V49.6875H24.8901C25.0694 42.8771 26.4394 36.1506 28.938 29.8125ZM48.0312 29.8125H54.8318C55.5071 32.867 57.0313 35.6687 59.2289 37.8951C61.4265 40.1214 64.2082 41.6818 67.2537 42.3967C67.6081 44.7717 67.8168 47.2064 67.8864 49.6875H48.0312V29.8125ZM58.2801 29.8125H63.8319C64.9581 32.6745 65.9353 35.6326 66.6044 38.7562C64.5978 38.0486 62.7924 36.8653 61.3427 35.3078C59.893 33.7502 58.8422 31.8647 58.2801 29.8125ZM67.4392 29.8125H81.726C82.1566 30.5181 82.5608 31.2402 82.9483 31.9723C81.884 34.2397 80.1961 36.1572 78.0819 37.5005C75.9678 38.8439 73.5149 39.5575 71.0101 39.5579C70.702 39.5579 70.4138 39.485 70.1058 39.4651C69.4849 36.1798 68.5942 32.9513 67.4425 29.8125H67.4392ZM83.9454 36.8913L100.339 53.2849L97.997 55.6268L81.6001 39.2299L83.9454 36.8913ZM78.6123 40.9259L87.3738 49.6875H71.1989C71.1393 47.3688 70.9571 45.0864 70.6556 42.8505C70.7749 42.8505 70.8908 42.8671 71.0134 42.8671C73.7627 42.8671 76.3266 42.1217 78.6123 40.9259ZM5.05156 53H21.5776C21.7326 59.7854 22.9993 66.4995 25.3274 72.875H11.0306C7.3714 66.87 5.31284 60.0272 5.05156 53ZM24.8901 53H44.7188V72.875H28.9446C26.4432 66.5375 25.071 59.8109 24.8901 53ZM48.0312 53H67.8036C67.4524 59.2374 65.7531 66.0976 62.7818 72.875H48.0312V53ZM71.1194 53H87.6984C87.4369 60.0271 85.3783 66.8699 81.7194 72.875H66.3726C69.165 66.1506 70.7981 59.3467 71.1227 53H71.1194ZM13.2798 76.1875H26.6623C29.2162 81.9976 32.6281 87.2148 36.7323 91.5973C27.3554 89.3543 19.0613 83.9031 13.2798 76.1875ZM30.3524 76.1875H44.7188V92.6904C43.9966 92.6639 43.2712 92.6473 42.559 92.5811C37.5671 88.2284 33.3966 82.6369 30.3491 76.1875H30.3524ZM48.0346 76.1875H61.162C58.2021 82.1373 54.4466 87.6568 49.9989 92.5943C49.3529 92.6506 48.6904 92.6672 48.0346 92.6937V76.1875ZM64.8819 76.1875H79.4768C73.4821 84.205 64.7816 89.7747 54.9908 91.8623C58.9057 87.0544 62.229 81.7914 64.8819 76.1875Z" fill="#AD8200"/>
</svg>
