<svg width="66" height="66" viewBox="0 0 66 66" fill="none" xmlns="http://www.w3.org/2000/svg">
<path d="M28.875 4.125C13.5094 4.125 1.03125 16.6031 1.03125 31.9688C1.03125 47.3344 13.5094 59.8125 28.875 59.8125C29.9681 59.8125 31.0406 59.73 32.1007 59.6063L32.1379 59.6434L32.1791 59.598C45.5854 58.0078 56.0608 46.8786 56.6589 33.1939L60.2889 36.8239C60.4822 37.0166 60.7441 37.1248 61.017 37.1248C61.2899 37.1248 61.5518 37.0166 61.7451 36.8239L64.6676 33.9054C64.861 33.712 64.9696 33.4498 64.9696 33.1763C64.9696 32.9029 64.861 32.6406 64.6676 32.4473L55.2358 23.0216C54.8586 21.9207 54.4122 20.8447 53.8993 19.8C54.3053 18.7022 54.5188 17.5425 54.5304 16.3721C54.5266 13.6372 53.4385 11.0153 51.5046 9.08139C49.5706 7.14747 46.9488 6.05932 44.2138 6.0555C42.9755 6.06369 41.7489 6.29712 40.5941 6.74437C37.9381 5.50883 35.1025 4.70334 32.1936 4.35806L32.0739 4.25494V4.23844L31.9914 4.33537C30.9664 4.21987 29.931 4.1415 28.875 4.1415V4.125ZM29.9062 6.24319C30.3703 6.26381 30.8323 6.28237 31.2881 6.32569C32.8247 7.66631 34.2581 9.16987 35.5224 10.8611C34.464 12.504 33.8985 14.4158 33.8931 16.3701C33.8931 16.4154 33.9013 16.4567 33.9034 16.5H29.9062V6.24319ZM27.8438 6.25556V16.5H18.8925C20.7817 12.4987 23.3681 9.03169 26.4619 6.32363C26.9156 6.28237 27.3818 6.27413 27.8438 6.25556ZM34.8893 6.91556C36.0443 7.19194 37.1642 7.55494 38.2511 7.97981C37.7417 8.34487 37.2632 8.74706 36.828 9.19669C36.2172 8.40754 35.5703 7.64704 34.8893 6.91763V6.91556ZM22.8277 6.94444C20.2289 9.75708 18.1225 12.9875 16.5969 16.5H8.29125C11.8803 11.7236 17.0197 8.34515 22.8277 6.94444ZM44.2159 8.118C45.3003 8.1161 46.3743 8.32831 47.3765 8.74247C48.3787 9.15663 49.2893 9.76459 50.0559 10.5315C50.8226 11.2983 51.4303 12.209 51.8443 13.2113C52.2582 14.2136 52.4701 15.2877 52.4679 16.3721C52.4679 16.6196 52.4184 16.8548 52.3957 17.1002C50.1001 13.4804 47.0038 10.4363 43.3455 8.20256C43.6343 8.17163 43.9168 8.118 44.2159 8.118ZM40.557 8.99869C44.0615 10.7885 47.1115 13.354 49.4753 16.5H41.1613C40.3033 14.5402 39.2677 12.6631 38.0676 10.8921C38.7684 10.1072 39.6135 9.46443 40.557 8.99869ZM36.8032 12.7813C37.5602 13.9652 38.2614 15.1965 38.8781 16.5H35.97C35.97 16.4567 35.9576 16.4154 35.9576 16.3701C35.9576 15.0769 36.2752 13.8703 36.8032 12.7813ZM6.88875 18.5625H15.7699C14.3202 22.5321 13.5314 26.7126 13.4351 30.9375H3.14531C3.31451 26.5603 4.60337 22.2996 6.88875 18.5625ZM18.018 18.5625H27.8438V30.9375H15.4976C15.6092 26.697 16.4622 22.5088 18.018 18.5625ZM29.9062 18.5625H34.1406C34.561 20.4644 35.51 22.2088 36.8784 23.595C38.2467 24.9812 39.9787 25.9528 41.8749 26.3979C42.0956 27.8767 42.2256 29.3927 42.2689 30.9375H29.9062V18.5625ZM36.2876 18.5625H39.7444C40.4456 20.3445 41.0541 22.1863 41.4707 24.1313C40.2213 23.6906 39.0972 22.9539 38.1945 21.9841C37.2919 21.0143 36.6376 19.8403 36.2876 18.5625ZM41.9904 18.5625H50.886C51.1541 19.0018 51.4058 19.4514 51.6471 19.9073C50.9844 21.3191 49.9334 22.513 48.617 23.3494C47.3007 24.1858 45.7734 24.6301 44.2138 24.6304C44.022 24.6304 43.8426 24.585 43.6507 24.5726C43.2642 22.5271 42.7096 20.5169 41.9925 18.5625H41.9904ZM52.2679 22.9701L62.4752 33.1774L61.017 34.6356L50.8076 24.4262L52.2679 22.9701ZM48.9473 25.4822L54.4026 30.9375H44.3314C44.2943 29.4937 44.1808 28.0727 43.9931 26.6805C44.0674 26.6805 44.1396 26.6908 44.2159 26.6908C45.9277 26.6908 47.5241 26.2267 48.9473 25.4822ZM3.14531 33H13.4351C13.5316 37.2249 14.3203 41.4054 15.7699 45.375H6.86812C4.58974 41.6361 3.308 37.3754 3.14531 33ZM15.4976 33H27.8438V45.375H18.0221C16.4646 41.429 15.6102 37.2407 15.4976 33ZM29.9062 33H42.2173C41.9987 36.8837 40.9406 41.1551 39.0906 45.375H29.9062V33ZM44.2819 33H54.6047C54.4418 37.3754 53.1601 41.636 50.8819 45.375H41.3263C43.065 41.1881 44.0818 36.9518 44.2839 33H44.2819ZM8.26856 47.4375H16.6011C18.1912 51.0551 20.3156 54.3036 22.8711 57.0322C17.0326 55.6357 11.8684 52.2416 8.26856 47.4375ZM18.8987 47.4375H27.8438V57.7129C27.3941 57.6964 26.9424 57.6861 26.499 57.6448C23.3908 54.9347 20.7941 51.4532 18.8966 47.4375H18.8987ZM29.9083 47.4375H38.082C36.239 51.1421 33.9007 54.5788 31.1314 57.6531C30.7292 57.6881 30.3167 57.6984 29.9083 57.7149V47.4375ZM40.3982 47.4375H49.4856C45.753 52.4295 40.3357 55.8975 34.2396 57.1973C36.6771 54.2037 38.7463 50.9267 40.3982 47.4375Z" fill="#AD8200"/>
</svg>
