<svg width="55" height="55" viewBox="0 0 55 55" fill="none" xmlns="http://www.w3.org/2000/svg">
<path d="M55 27.5C55 42.6878 42.6878 55 27.5 55C12.3122 55 0 42.6878 0 27.5C0 12.3122 12.3122 0 27.5 0C42.6878 0 55 12.3122 55 27.5ZM4.44215 27.5C4.44215 40.2345 14.7655 50.5579 27.5 50.5579C40.2345 50.5579 50.5579 40.2345 50.5579 27.5C50.5579 14.7655 40.2345 4.44215 27.5 4.44215C14.7655 4.44215 4.44215 14.7655 4.44215 27.5Z" fill="url(#paint0_linear_145_1273)"/>
<path d="M44.3405 17.9625C44.1324 17.928 43.9192 17.9775 43.7476 18.1002C43.576 18.2228 43.4601 18.4086 43.4254 18.6166L43.1437 20.3059C41.7158 16.9943 39.2758 14.2201 36.1736 12.3811C33.0714 10.5421 29.4665 9.73281 25.8759 10.0694C22.2853 10.406 18.8936 11.8711 16.1872 14.2546C13.4809 16.6381 11.5989 19.8175 10.8113 23.3368C10.7624 23.5422 10.797 23.7585 10.9076 23.9383C11.0182 24.1182 11.1956 24.2467 11.401 24.2957C11.6063 24.3446 11.8227 24.31 12.0025 24.1994C12.1823 24.0888 12.3109 23.9114 12.3598 23.706C13.0742 20.4858 14.7985 17.5781 17.2815 15.4067C19.7644 13.2354 22.8761 11.914 26.1627 11.6352C29.4494 11.3565 32.7392 12.135 35.5523 13.8571C38.3655 15.5793 40.5549 18.1552 41.8014 21.2091L39.937 19.7171C39.8554 19.6518 39.7617 19.6032 39.6613 19.5741C39.5609 19.545 39.4558 19.5359 39.3519 19.5475C39.248 19.559 39.1474 19.5909 39.0558 19.6413C38.9643 19.6917 38.8835 19.7596 38.8182 19.8412C38.7529 19.9228 38.7043 20.0165 38.6752 20.1169C38.6461 20.2173 38.6371 20.3224 38.6486 20.4263C38.6601 20.5302 38.692 20.6308 38.7424 20.7224C38.7928 20.8139 38.8607 20.8947 38.9424 20.96L42.9209 24.1429C43.061 24.2549 43.2349 24.3163 43.4143 24.3171C43.5114 24.3174 43.6077 24.2996 43.6984 24.2646C43.828 24.215 43.9424 24.1324 44.0302 24.0249C44.118 23.9174 44.1761 23.7888 44.1989 23.6519L44.9946 18.8776C45.0291 18.6695 44.9796 18.4563 44.8569 18.2847C44.7343 18.1131 44.5485 17.9972 44.3405 17.9625ZM43.5989 30.7044C43.3941 30.6565 43.1787 30.6917 42.9998 30.8022C42.8209 30.9127 42.693 31.0895 42.644 31.294C41.9286 34.5126 40.204 37.4186 37.7217 39.5886C35.2394 41.7587 32.1289 43.0793 28.8436 43.3582C25.5583 43.637 22.2697 42.8595 19.4572 41.1389C16.6446 39.4183 14.4549 36.8445 13.2073 33.7925L15.0708 35.2829C15.1524 35.3482 15.2461 35.3968 15.3465 35.4259C15.4469 35.455 15.552 35.4641 15.6559 35.4526C15.7598 35.441 15.8604 35.4092 15.952 35.3588C16.0435 35.3083 16.1243 35.2404 16.1896 35.1588C16.2549 35.0772 16.3035 34.9835 16.3326 34.8831C16.3617 34.7827 16.3708 34.6776 16.3592 34.5737C16.3477 34.4698 16.3158 34.3692 16.2654 34.2776C16.215 34.1861 16.1471 34.1053 16.0655 34.04L12.0869 30.8571C11.9785 30.7705 11.8494 30.7137 11.7123 30.6923C11.5752 30.671 11.4349 30.6859 11.3053 30.7355C11.1758 30.7851 11.0614 30.8678 10.9736 30.9752C10.8859 31.0827 10.8277 31.2112 10.805 31.3481L10.0093 36.1224C9.97475 36.3305 10.0243 36.5437 10.1469 36.7153C10.2696 36.8869 10.4553 37.0028 10.6633 37.0375C10.7051 37.0448 10.7474 37.0485 10.7899 37.0486C10.9781 37.0483 11.1601 36.9814 11.3036 36.8596C11.4471 36.7378 11.5428 36.5691 11.5736 36.3834L11.8561 34.6917C13.2833 38.0039 15.7229 40.7788 18.825 42.6185C21.927 44.4581 25.5321 45.2678 29.1229 44.9315C32.7137 44.5951 36.1057 43.13 38.8122 40.7463C41.5187 38.3626 43.4005 35.1828 44.1877 31.6632C44.2368 31.458 44.2023 31.2417 44.0919 31.0618C43.9814 30.882 43.8041 30.7534 43.5989 30.7044Z" fill="#531B8A"/>
<path d="M28.5506 33.6931V32.6291H30.6513C30.9298 32.6291 31.197 32.517 31.394 32.3174C31.5909 32.1179 31.7016 31.8473 31.7016 31.5651V27.3091C31.7016 27.0269 31.5909 26.7563 31.394 26.5568C31.197 26.3572 30.9298 26.2451 30.6513 26.2451H25.3995V24.1172H30.6513C30.9298 24.1172 31.197 24.0051 31.394 23.8055C31.5909 23.606 31.7016 23.3354 31.7016 23.0532C31.7016 22.771 31.5909 22.5004 31.394 22.3008C31.197 22.1013 30.9298 21.9892 30.6513 21.9892H28.5506V20.9252C28.5506 20.643 28.4399 20.3724 28.2429 20.1728C28.0459 19.9733 27.7788 19.8612 27.5002 19.8612C27.2216 19.8612 26.9545 19.9733 26.7575 20.1728C26.5605 20.3724 26.4499 20.643 26.4499 20.9252V21.9892H24.3492C24.0706 21.9892 23.8034 22.1013 23.6065 22.3008C23.4095 22.5004 23.2988 22.771 23.2988 23.0532V27.3091C23.2988 27.5913 23.4095 27.8619 23.6065 28.0615C23.8034 28.261 24.0706 28.3731 24.3492 28.3731H29.6009V30.5011H24.3492C24.0706 30.5011 23.8034 30.6132 23.6065 30.8127C23.4095 31.0123 23.2988 31.2829 23.2988 31.5651C23.2988 31.8473 23.4095 32.1179 23.6065 32.3174C23.8034 32.517 24.0706 32.6291 24.3492 32.6291H26.4499V33.6931C26.4499 33.9752 26.5605 34.2459 26.7575 34.4454C26.9545 34.6449 27.2216 34.757 27.5002 34.757C27.7788 34.757 28.0459 34.6449 28.2429 34.4454C28.4399 34.2459 28.5506 33.9752 28.5506 33.6931Z" fill="#531B8A"/>
<defs>
<linearGradient id="paint0_linear_145_1273" x1="27.5" y1="0" x2="27.5" y2="55" gradientUnits="userSpaceOnUse">
<stop offset="0.246643" stop-color="#531B8A"/>
<stop offset="1" stop-color="#9747FF"/>
</linearGradient>
</defs>
</svg>
