<svg width="55" height="55" viewBox="0 0 55 55" fill="none" xmlns="http://www.w3.org/2000/svg">
<path d="M55 27.5C55 42.6878 42.6878 55 27.5 55C12.3122 55 0 42.6878 0 27.5C0 12.3122 12.3122 0 27.5 0C42.6878 0 55 12.3122 55 27.5ZM4.44215 27.5C4.44215 40.2345 14.7655 50.5579 27.5 50.5579C40.2345 50.5579 50.5579 40.2345 50.5579 27.5C50.5579 14.7655 40.2345 4.44215 27.5 4.44215C14.7655 4.44215 4.44215 14.7655 4.44215 27.5Z" fill="url(#paint0_linear_145_1259)"/>
<g clip-path="url(#clip0_145_1259)">
<path d="M20.5866 38.3858L44.4718 32.0558C44.8725 31.9494 45.2449 31.7565 45.5631 31.4906C45.8812 31.2248 46.1374 30.8923 46.3136 30.5167C46.4898 30.141 46.5818 29.7313 46.5831 29.3161C46.5844 28.9009 46.495 28.4904 46.3212 28.1133L45.3389 25.9923C45.304 25.9017 45.2509 25.8192 45.183 25.75C45.115 25.6807 45.0336 25.6261 44.9437 25.5896C44.8539 25.5531 44.7575 25.5354 44.6606 25.5376C44.5637 25.5399 44.4684 25.562 44.3804 25.6026C44.2924 25.6432 44.2136 25.7015 44.1491 25.7739C44.0845 25.8462 44.0354 25.931 44.0049 26.0231C43.9743 26.1152 43.963 26.2126 43.9715 26.3093C43.98 26.406 44.0083 26.5 44.0545 26.5853L45.0342 28.7078C45.1217 28.8967 45.1667 29.1024 45.1663 29.3106C45.1658 29.5187 45.1199 29.7242 45.0316 29.9125C44.9433 30.1009 44.8149 30.2675 44.6554 30.4008C44.4959 30.534 44.3091 30.6306 44.1082 30.6838L20.223 37.0138C18.583 37.4569 16.8402 37.3222 15.2866 36.6322C13.7329 35.9423 12.4625 34.739 11.688 33.2238C11.5995 33.0602 11.4505 32.9378 11.2729 32.883C11.0953 32.8283 10.9034 32.8455 10.7385 32.9309C10.5736 33.0164 10.4488 33.1634 10.3911 33.3401C10.3333 33.5169 10.3471 33.7093 10.4296 33.8761C11.3588 35.6725 12.8716 37.0983 14.7182 37.9182C16.5648 38.7381 18.6349 38.903 20.5866 38.3858Z" fill="#531B8A"/>
<path d="M25.8869 34.0355L38.6442 30.6546C38.8258 30.6064 38.9809 30.4879 39.0753 30.3251L40.434 27.9818L44.8523 26.9791C44.953 26.9561 45.0474 26.9115 45.129 26.8482C45.2106 26.7849 45.2774 26.7045 45.3247 26.6126C45.372 26.5207 45.3987 26.4196 45.4029 26.3163C45.4071 26.213 45.3887 26.11 45.349 26.0145L42.0001 17.9847C41.8646 17.6523 41.6236 17.3739 41.3143 17.1924C41.0051 17.0109 40.6448 16.9364 40.2892 16.9804C39.9337 17.0245 39.6026 17.1847 39.3472 17.4361C39.0918 17.6876 38.9264 18.0165 38.8764 18.3718L38.5672 20.481C38.4679 21.161 38.162 21.7937 37.691 22.2931C37.22 22.7926 36.6067 23.1345 35.9346 23.2725C35.2624 23.4105 34.564 23.3379 33.9341 23.0645C33.3043 22.7911 32.7736 22.3302 32.4141 21.7444L30.1082 17.9821C30.0523 17.8909 29.9767 17.8135 29.8868 17.7556C29.7969 17.6978 29.6952 17.661 29.5891 17.6481C29.4831 17.6352 29.3756 17.6464 29.2745 17.6809C29.1735 17.7154 29.0816 17.7724 29.0056 17.8475L26.8111 20.0142C23.0698 23.7074 18.0895 26.7174 12.7872 28.4906C11.8401 28.8052 11.0495 29.471 10.5776 30.3514C10.5161 30.4654 10.4605 30.5822 10.411 30.6996C10.3388 30.873 10.3382 31.068 10.4094 31.2419C10.4805 31.4158 10.6175 31.5544 10.7904 31.6275C14.2968 33.0931 18.1862 33.364 21.8593 32.3983C22.3238 32.2752 22.7845 32.1318 23.2287 31.9737C23.3891 31.9165 23.5596 31.8934 23.7294 31.9056C23.8992 31.9179 24.0647 31.9653 24.2154 32.0449C24.366 32.1245 24.4986 32.2345 24.6047 32.368C24.7107 32.5014 24.788 32.6555 24.8316 32.8204L25.0199 33.5307C25.0681 33.7128 25.1866 33.8682 25.3492 33.9629C25.5118 34.0575 25.7052 34.0837 25.8869 34.0355ZM37.9926 29.3582L26.2083 32.4812L26.2019 32.4572C26.1079 32.1026 25.9414 31.7712 25.7131 31.4841C25.4848 31.197 25.1995 30.9604 24.8754 30.7892C24.5512 30.6181 24.1952 30.5161 23.8298 30.4897C23.4644 30.4633 23.0975 30.5131 22.7525 30.636C22.3445 30.7815 21.9217 30.9127 21.4955 31.0256C18.3949 31.8411 15.1198 31.6987 12.0998 30.6171C12.3988 30.2549 12.7937 29.9845 13.2393 29.837C18.743 27.9964 23.9177 24.8673 27.8092 21.0249L29.3664 19.4854L31.2055 22.4849C31.7173 23.3189 32.4729 23.9752 33.3696 24.3646C34.2664 24.754 35.2608 24.8576 36.2179 24.6614C37.175 24.4652 38.0483 23.9787 38.7193 23.2679C39.3903 22.5571 39.8264 21.6566 39.9684 20.6885L40.2783 18.5761C40.2842 18.5347 40.3023 18.4959 40.3301 18.4647C40.3583 18.433 40.395 18.4102 40.4359 18.3992C40.4862 18.3854 40.5398 18.3907 40.5865 18.4139C40.6333 18.4372 40.6698 18.4768 40.6893 18.5252L43.7126 25.7827L39.8154 26.6686C39.7205 26.6901 39.631 26.731 39.5525 26.7886C39.4741 26.8463 39.4084 26.9196 39.3595 27.0039L37.9926 29.3582Z" fill="#531B8A"/>
<path d="M20.7882 35.3868L25.887 34.0355C26.0687 33.9874 26.2238 33.8689 26.3182 33.7061C26.4126 33.5433 26.4385 33.3496 26.3903 33.1676C26.342 32.9856 26.2236 32.8301 26.061 32.7355C25.8984 32.6408 25.7049 32.6147 25.5232 32.6628L20.471 34.0018L12.5668 34.9851C12.4725 34.9942 12.3809 35.022 12.2975 35.0671C12.2141 35.1122 12.1406 35.1736 12.0814 35.2477C12.0221 35.3217 11.9783 35.4069 11.9525 35.4983C11.9268 35.5896 11.9195 35.6852 11.9313 35.7795C11.9431 35.8737 11.9736 35.9646 12.0211 36.0468C12.0685 36.129 12.132 36.2009 12.2076 36.2582C12.2833 36.3154 12.3697 36.3569 12.4616 36.3802C12.5535 36.4035 12.6492 36.408 12.7428 36.3936L20.6934 35.4053C20.7254 35.4012 20.7571 35.3951 20.7882 35.3868ZM11.2404 34.2356C11.4221 34.1874 11.5772 34.0689 11.6716 33.9062C11.766 33.7434 11.7919 33.5497 11.7437 33.3677L11.6103 32.8646C11.4667 32.3301 11.5054 31.763 11.7201 31.2533C11.7927 31.0797 11.7934 30.8842 11.7221 30.7099C11.6508 30.5356 11.5134 30.3967 11.3399 30.3239C11.1665 30.251 10.9713 30.2501 10.7973 30.3213C10.6234 30.3926 10.4848 30.5301 10.4122 30.7038C10.0759 31.5022 10.0153 32.3904 10.2401 33.2277L10.3743 33.7342C10.4233 33.9154 10.5419 34.0699 10.7042 34.1638C10.8665 34.2578 11.0593 34.2836 11.2404 34.2356ZM29.6868 33.0285C29.8152 32.9943 29.9314 32.9247 30.0221 32.8276C30.1128 32.7304 30.1745 32.6097 30.2 32.4791C30.2254 32.3485 30.2137 32.2133 30.1662 32.089C30.1187 31.9647 30.0373 31.8562 29.9312 31.776C29.4243 31.3887 29.0062 30.8971 28.7052 30.3342C28.4042 29.7714 28.2274 29.1504 28.1867 28.5135C28.1407 27.8828 28.2325 27.2499 28.4557 26.6587C28.679 26.0675 29.0282 25.5323 29.4792 25.0902L32.176 22.3974C32.3026 22.2634 32.372 22.0852 32.3696 21.9006C32.3672 21.7161 32.2931 21.5396 32.1631 21.4087C32.033 21.2778 31.8572 21.2028 31.673 21.1995C31.4887 21.1961 31.3104 21.2648 31.176 21.391L28.4772 24.0843C27.8818 24.669 27.4209 25.3768 27.1265 26.1584C26.8322 26.9399 26.7115 27.7764 26.7728 28.6098C26.8278 29.4498 27.0624 30.2683 27.4606 31.0099C27.8588 31.7516 28.4113 32.399 29.0808 32.9085C29.1663 32.973 29.2652 33.0173 29.3701 33.0381C29.4751 33.0588 29.5833 33.0556 29.6868 33.0285Z" fill="#531B8A"/>
<path d="M33.9663 31.8944C34.0098 31.8832 34.0521 31.8675 34.0925 31.8477C34.1764 31.8074 34.2516 31.7509 34.3137 31.6815C34.3758 31.6121 34.4237 31.531 34.4545 31.4431C34.4853 31.3551 34.4985 31.2619 34.4933 31.1688C34.4882 31.0756 34.4647 30.9844 34.4244 30.9004C33.7298 29.4552 33.0881 28.4287 32.0323 27.7786C30.9405 27.1064 29.5101 26.9162 27.396 27.1621C27.2093 27.1839 27.0389 27.2792 26.9224 27.4269C26.8059 27.5746 26.7527 27.7626 26.7747 27.9497C26.7967 28.1367 26.8919 28.3074 27.0395 28.4242C27.187 28.5411 27.3749 28.5944 27.5616 28.5726C31.1572 28.1537 31.9878 29.0964 33.1485 31.5147C33.2198 31.6631 33.3404 31.7821 33.4895 31.8513C33.6387 31.9206 33.8072 31.9358 33.9663 31.8944ZM26.2645 24.3644C26.3516 24.3414 26.4335 24.3018 26.5056 24.2476C26.5803 24.1921 26.6434 24.1223 26.6912 24.0423C26.739 23.9622 26.7706 23.8736 26.7841 23.7813C26.7977 23.689 26.7929 23.595 26.7701 23.5045C26.7474 23.4141 26.707 23.329 26.6514 23.2541L25.7396 22.0267C25.6273 21.8755 25.4597 21.7752 25.2736 21.7478C25.0876 21.7204 24.8984 21.7681 24.7476 21.8804C24.5968 21.9928 24.4968 22.1605 24.4695 22.3468C24.4423 22.5331 24.4901 22.7227 24.6024 22.8738L25.5143 24.1012C25.5988 24.2151 25.7155 24.3011 25.8492 24.348C25.9829 24.3949 26.1276 24.4006 26.2645 24.3644ZM23.8823 26.4678C23.9693 26.4446 24.0511 26.4052 24.1236 26.3517C24.1982 26.296 24.2612 26.2262 24.3089 26.1462C24.3566 26.0662 24.3881 25.9775 24.4016 25.8853C24.4151 25.793 24.4103 25.699 24.3875 25.6086C24.3647 25.5182 24.3243 25.4331 24.2687 25.3583L23.2108 23.9338C23.0985 23.7827 22.9309 23.6824 22.7448 23.6549C22.5588 23.6275 22.3696 23.6752 22.2188 23.7876C22.068 23.8999 21.968 24.0677 21.9407 24.254C21.9135 24.4402 21.9613 24.6298 22.0736 24.7809L23.1293 26.2053C23.2142 26.3196 23.3313 26.4057 23.4656 26.4525C23.5999 26.4993 23.7451 26.5046 23.8823 26.4678ZM21.3173 27.8843C21.4293 27.8546 21.5323 27.7978 21.6173 27.719C21.7022 27.6402 21.7666 27.5416 21.8047 27.4321C21.8428 27.3225 21.8535 27.2053 21.8359 27.0906C21.8183 26.9759 21.7728 26.8672 21.7036 26.7741L20.7512 25.4906C20.6967 25.4131 20.6272 25.3474 20.547 25.2972C20.4667 25.247 20.3773 25.2134 20.2839 25.1984C20.1905 25.1833 20.0951 25.1871 20.0032 25.2096C19.9114 25.2321 19.8249 25.2727 19.749 25.3291C19.6731 25.3856 19.6093 25.4567 19.5613 25.5382C19.5132 25.6198 19.482 25.7101 19.4694 25.804C19.4567 25.8978 19.463 25.9933 19.4878 26.0847C19.5126 26.1761 19.5554 26.2617 19.6136 26.3363L20.5661 27.6199C20.6505 27.7342 20.7673 27.8205 20.9012 27.8676C21.0352 27.9148 21.1801 27.9206 21.3173 27.8843ZM28.6472 22.2602C28.7592 22.2305 28.8622 22.1737 28.9471 22.0949C29.0321 22.0161 29.0965 21.9176 29.1346 21.808C29.1727 21.6985 29.1834 21.5812 29.1658 21.4665C29.1482 21.3518 29.1027 21.2431 29.0335 21.15L28.093 19.8839C27.977 19.7438 27.8118 19.6535 27.6314 19.6317C27.451 19.61 27.2692 19.6584 27.1236 19.767C26.9779 19.8757 26.8795 20.0362 26.8487 20.2155C26.8179 20.3948 26.857 20.5791 26.9579 20.7305L27.8984 21.9966C27.9828 22.1103 28.0992 22.1962 28.2326 22.2432C28.3661 22.2901 28.5104 22.2961 28.6472 22.2602Z" fill="#531B8A"/>
</g>
<defs>
<linearGradient id="paint0_linear_145_1259" x1="27.5" y1="0" x2="27.5" y2="55" gradientUnits="userSpaceOnUse">
<stop offset="0.246643" stop-color="#531B8A"/>
<stop offset="1" stop-color="#9747FF"/>
</linearGradient>
<clipPath id="clip0_145_1259">
<rect width="36.2305" height="17.7898" fill="white" transform="matrix(-0.966631 0.256173 0.256173 0.966631 42.6606 14.1318)"/>
</clipPath>
</defs>
</svg>
