<svg width="122" height="122" viewBox="0 0 122 122" fill="none" xmlns="http://www.w3.org/2000/svg">
<path d="M121.053 60.5263C121.053 93.9541 93.9541 121.053 60.5263 121.053C27.0986 121.053 0 93.9541 0 60.5263C0 27.0986 27.0986 0 60.5263 0C93.9541 0 121.053 27.0986 121.053 60.5263ZM9.77697 60.5263C9.77697 88.5544 32.4982 111.276 60.5263 111.276C88.5544 111.276 111.276 88.5544 111.276 60.5263C111.276 32.4982 88.5544 9.77697 60.5263 9.77697C32.4982 9.77697 9.77697 32.4982 9.77697 60.5263Z" fill="url(#paint0_linear_141_115)"/>
<path d="M97.5917 39.5348C97.1337 39.4588 96.6643 39.5678 96.2867 39.8377C95.909 40.1077 95.654 40.5165 95.5776 40.9744L94.9576 44.6925C91.8149 37.4038 86.4444 31.2978 79.6166 27.2502C72.7889 23.2026 64.8546 21.4215 56.9519 22.1623C49.0492 22.9031 41.5841 26.1278 35.6275 31.3738C29.6709 36.6198 25.5288 43.6176 23.7954 51.3633C23.6877 51.8153 23.7639 52.2915 24.0072 52.6873C24.2506 53.083 24.6412 53.3659 25.0932 53.4737C25.5451 53.5814 26.0214 53.5053 26.4171 53.2619C26.8129 53.0185 27.0958 52.6279 27.2035 52.1759C28.7758 45.0885 32.571 38.6886 38.0359 33.9095C43.5007 29.1304 50.3494 26.2221 57.5832 25.6086C64.817 24.9951 72.0576 26.7085 78.2492 30.499C84.4409 34.2895 89.2597 39.9588 92.0031 46.6802L87.8997 43.3965C87.7201 43.2527 87.5139 43.1458 87.293 43.0817C87.072 43.0176 86.8406 42.9977 86.612 43.0231C86.3833 43.0485 86.1619 43.1186 85.9604 43.2296C85.7588 43.3405 85.5811 43.4901 85.4374 43.6697C85.2936 43.8493 85.1867 44.0555 85.1226 44.2764C85.0585 44.4974 85.0386 44.7288 85.064 44.9575C85.0893 45.1861 85.1595 45.4075 85.2705 45.6091C85.3814 45.8106 85.5309 45.9883 85.7106 46.1321L94.4673 53.1374C94.7756 53.384 95.1583 53.5192 95.5531 53.521C95.7669 53.5215 95.9789 53.4823 96.1783 53.4054C96.4636 53.2962 96.7153 53.1143 96.9086 52.8777C97.1018 52.6412 97.2298 52.3582 97.2799 52.0569L99.0313 41.5488C99.1072 41.0909 98.9982 40.6215 98.7283 40.2438C98.4584 39.8662 98.0495 39.6111 97.5917 39.5348ZM95.9594 67.579C95.5087 67.4737 95.0347 67.5511 94.6409 67.7943C94.2471 68.0374 93.9655 68.4266 93.8578 68.8767C92.2831 75.9607 88.4875 82.3567 83.024 87.1329C77.5604 91.909 70.7145 94.8157 63.4836 95.4295C56.2528 96.0432 49.0149 94.3319 42.8245 90.5449C36.6342 86.7579 31.8148 81.0931 29.0687 74.3759L33.1704 77.6562C33.35 77.7999 33.5562 77.9069 33.7771 77.971C33.9981 78.035 34.2295 78.0549 34.4581 78.0296C34.6868 78.0042 34.9082 77.934 35.1097 77.8231C35.3113 77.7122 35.489 77.5626 35.6327 77.383C35.7765 77.2034 35.8834 76.9972 35.9475 76.7762C36.0116 76.5553 36.0315 76.3239 36.0061 76.0952C35.9807 75.8666 35.9106 75.6451 35.7996 75.4436C35.6887 75.2421 35.5392 75.0643 35.3595 74.9206L26.6028 67.9152C26.3643 67.7245 26.0801 67.5995 25.7784 67.5525C25.4766 67.5056 25.1678 67.5383 24.8827 67.6475C24.5975 67.7568 24.3458 67.9386 24.1527 68.1752C23.9595 68.4117 23.8315 68.6946 23.7814 68.9958L22.0301 79.5039C21.9541 79.9618 22.0631 80.4312 22.333 80.8088C22.603 81.1865 23.0118 81.4415 23.4697 81.5179C23.5616 81.5341 23.6548 81.5423 23.7481 81.5424C24.1624 81.5418 24.563 81.3944 24.8789 81.1263C25.1947 80.8583 25.4053 80.4869 25.4732 80.0783L26.0949 76.3549C29.236 83.6449 34.6055 89.7525 41.433 93.8014C48.2606 97.8504 56.1952 99.6326 64.0984 98.8923C72.0017 98.152 79.4673 94.9273 85.4241 89.6808C91.381 84.4343 95.5228 77.4358 97.2554 69.6893C97.3633 69.2376 97.2875 68.7616 97.0444 68.3658C96.8014 67.97 96.4111 67.687 95.9594 67.579Z" fill="#531B8A"/>
<path d="M62.8381 74.1567V71.8149H67.4616C68.0747 71.8149 68.6627 71.5682 69.0963 71.129C69.5298 70.6898 69.7734 70.0942 69.7734 69.4731V60.1059C69.7734 59.4848 69.5298 58.8892 69.0963 58.45C68.6627 58.0109 68.0747 57.7641 67.4616 57.7641H55.9028V53.0805H67.4616C68.0747 53.0805 68.6627 52.8338 69.0963 52.3947C69.5298 51.9555 69.7734 51.3598 69.7734 50.7388C69.7734 50.1177 69.5298 49.522 69.0963 49.0829C68.6627 48.6437 68.0747 48.397 67.4616 48.397H62.8381V46.0552C62.8381 45.4341 62.5945 44.8384 62.161 44.3993C61.7274 43.9601 61.1394 43.7134 60.5263 43.7134C59.9132 43.7134 59.3252 43.9601 58.8916 44.3993C58.4581 44.8384 58.2145 45.4341 58.2145 46.0552V48.397H53.591C52.9779 48.397 52.3899 48.6437 51.9563 49.0829C51.5228 49.522 51.2792 50.1177 51.2792 50.7388V60.1059C51.2792 60.727 51.5228 61.3226 51.9563 61.7618C52.3899 62.201 52.9779 62.4477 53.591 62.4477H65.1498V67.1313H53.591C52.9779 67.1313 52.3899 67.378 51.9563 67.8172C51.5228 68.2564 51.2792 68.852 51.2792 69.4731C51.2792 70.0942 51.5228 70.6898 51.9563 71.129C52.3899 71.5682 52.9779 71.8149 53.591 71.8149H58.2145V74.1567C58.2145 74.7778 58.4581 75.3734 58.8916 75.8126C59.3252 76.2517 59.9132 76.4985 60.5263 76.4985C61.1394 76.4985 61.7274 76.2517 62.161 75.8126C62.5945 75.3734 62.8381 74.7778 62.8381 74.1567Z" fill="#531B8A"/>
<defs>
<linearGradient id="paint0_linear_141_115" x1="60.5263" y1="0" x2="60.5263" y2="121.053" gradientUnits="userSpaceOnUse">
<stop offset="0.246643" stop-color="#531B8A"/>
<stop offset="1" stop-color="#9747FF"/>
</linearGradient>
</defs>
</svg>
