<svg width="50" height="50" viewBox="0 0 50 50" fill="none" xmlns="http://www.w3.org/2000/svg">
<path d="M36.2312 48.8929H14.2599C10.9301 48.8929 7.73665 47.5702 5.38212 45.2156C3.02759 42.8611 1.70483 39.6677 1.70483 36.3379V14.3666C1.70483 11.0368 3.02759 7.84333 5.38212 5.48881C7.73665 3.13428 10.9301 1.81152 14.2599 1.81152H36.2312C39.561 1.81152 42.7544 3.13428 45.1089 5.48881C47.4635 7.84333 48.7862 11.0368 48.7862 14.3666V36.3379C48.7862 39.6677 47.4635 42.8611 45.1089 45.2156C42.7544 47.5702 39.561 48.8929 36.2312 48.8929Z" stroke="#AD8200" stroke-width="2" stroke-miterlimit="10"/>
<path d="M25.2454 36.3379C31.3126 36.3379 36.2311 31.4194 36.2311 25.3522C36.2311 19.285 31.3126 14.3666 25.2454 14.3666C19.1782 14.3666 14.2598 19.285 14.2598 25.3522C14.2598 31.4194 19.1782 36.3379 25.2454 36.3379Z" stroke="#AD8200" stroke-width="2" stroke-miterlimit="10"/>
<path d="M39.3699 12.7972C40.2367 12.7972 40.9393 12.0946 40.9393 11.2278C40.9393 10.3611 40.2367 9.65845 39.3699 9.65845C38.5032 9.65845 37.8005 10.3611 37.8005 11.2278C37.8005 12.0946 38.5032 12.7972 39.3699 12.7972Z" stroke="#AD8200" stroke-width="2" stroke-miterlimit="10"/>
</svg>
