<svg width="122" height="122" viewBox="0 0 122 122" fill="none" xmlns="http://www.w3.org/2000/svg">
<path d="M121.053 60.5263C121.053 93.9541 93.9541 121.053 60.5263 121.053C27.0986 121.053 0 93.9541 0 60.5263C0 27.0986 27.0986 0 60.5263 0C93.9541 0 121.053 27.0986 121.053 60.5263ZM9.77697 60.5263C9.77697 88.5544 32.4982 111.276 60.5263 111.276C88.5544 111.276 111.276 88.5544 111.276 60.5263C111.276 32.4982 88.5544 9.77697 60.5263 9.77697C32.4982 9.77697 9.77697 32.4982 9.77697 60.5263Z" fill="url(#paint0_linear_141_101)"/>
<g clip-path="url(#clip0_141_101)">
<path d="M45.3094 84.4855L97.8799 70.5535C98.7616 70.3193 99.5814 69.8948 100.282 69.3096C100.982 68.7244 101.546 67.9928 101.934 67.166C102.321 66.3392 102.524 65.4373 102.527 64.5235C102.53 63.6097 102.333 62.7062 101.95 61.8763L99.7883 57.2079C99.7114 57.0085 99.5946 56.827 99.445 56.6746C99.2954 56.5221 99.1162 56.402 98.9185 56.3216C98.7207 56.2413 98.5087 56.2023 98.2954 56.2073C98.0822 56.2122 97.8722 56.2609 97.6785 56.3503C97.4849 56.4397 97.3116 56.568 97.1694 56.7272C97.0273 56.8864 96.9193 57.0731 96.8521 57.2758C96.7848 57.4785 96.7599 57.6929 96.7787 57.9058C96.7975 58.1186 96.8596 58.3254 96.9613 58.5133L99.1177 63.1847C99.3101 63.6005 99.4093 64.0533 99.4083 64.5114C99.4073 64.9694 99.3061 65.4217 99.1119 65.8362C98.9176 66.2507 98.635 66.6176 98.2839 66.9108C97.9328 67.2041 97.5217 67.4168 97.0796 67.5338L44.5092 81.4658C40.8995 82.441 37.0639 82.1445 33.6443 80.626C30.2247 79.1076 27.4286 76.4592 25.7241 73.1243C25.5293 72.7641 25.2012 72.4947 24.8104 72.3742C24.4196 72.2536 23.9972 72.2915 23.6343 72.4796C23.2713 72.6678 22.9967 72.9912 22.8695 73.3802C22.7424 73.7692 22.7728 74.1929 22.9543 74.5599C24.9994 78.5137 28.329 81.6518 32.3934 83.4564C36.4577 85.261 41.0138 85.624 45.3094 84.4855Z" fill="#531B8A"/>
<path d="M56.9757 74.9109L85.0539 67.4697C85.4537 67.3636 85.795 67.1028 86.0027 66.7446L88.9933 61.5869L98.7178 59.38C98.9393 59.3295 99.1472 59.2312 99.3268 59.0919C99.5063 58.9526 99.6533 58.7756 99.7574 58.5734C99.8616 58.3712 99.9203 58.1486 99.9295 57.9213C99.9388 57.6939 99.8983 57.4671 99.811 57.257L92.4402 39.5837C92.1419 38.8523 91.6114 38.2394 90.9308 37.8399C90.2501 37.4404 89.4572 37.2764 88.6746 37.3734C87.892 37.4704 87.1634 37.8229 86.6013 38.3764C86.0392 38.93 85.675 39.6537 85.565 40.4357L84.8845 45.0781C84.6659 46.5747 83.9926 47.9672 82.9559 49.0665C81.9193 50.1657 80.5696 50.9183 79.0902 51.2221C77.6108 51.5258 76.0736 51.366 74.6873 50.7642C73.301 50.1625 72.133 49.1481 71.3419 47.8588L66.2666 39.578C66.1437 39.3773 65.9771 39.2069 65.7793 39.0796C65.5814 38.9523 65.3575 38.8714 65.1242 38.843C64.8908 38.8145 64.6541 38.8392 64.4318 38.9152C64.2094 38.9912 64.0071 39.1165 63.8399 39.2818L59.0098 44.0507C50.7755 52.1792 39.8139 58.8042 28.1439 62.7069C26.0594 63.3993 24.3192 64.8647 23.2805 66.8024C23.1452 67.0532 23.023 67.3103 22.9139 67.5688C22.7551 67.9503 22.7538 68.3795 22.9103 68.7623C23.0668 69.145 23.3683 69.4502 23.7488 69.6109C31.4664 72.8368 40.0267 73.433 48.1111 71.3075C49.1335 71.0365 50.1473 70.721 51.1251 70.3729C51.4781 70.2472 51.8533 70.1962 52.2271 70.2231C52.601 70.2501 52.9652 70.3545 53.2968 70.5296C53.6283 70.7048 53.9201 70.9469 54.1535 71.2407C54.387 71.5345 54.5571 71.8736 54.653 72.2365L55.0674 73.7999C55.1736 74.2006 55.4343 74.5427 55.7921 74.751C56.15 74.9594 56.5757 75.0169 56.9757 74.9109ZM83.6199 64.6164L57.683 71.4901L57.669 71.4372C57.462 70.6566 57.0957 69.9273 56.5932 69.2954C56.0907 68.6635 55.4628 68.1427 54.7493 67.766C54.0359 67.3893 53.2523 67.1648 52.448 67.1067C51.6438 67.0487 50.8364 67.1583 50.0769 67.4287C49.179 67.7491 48.2484 68.0377 47.3105 68.2863C40.4862 70.0812 33.2778 69.7678 26.631 67.3872C27.2889 66.5899 28.1582 65.9947 29.139 65.6701C41.2523 61.6192 52.6415 54.7321 61.2067 46.2751L64.6339 42.8868L68.6816 49.4886C69.8081 51.3242 71.4711 52.7686 73.4448 53.6256C75.4185 54.4826 77.6073 54.7107 79.7138 54.2789C81.8202 53.8471 83.7424 52.7763 85.2192 51.2119C86.6961 49.6475 87.6559 47.6654 87.9685 45.5348L88.6504 40.8855C88.6636 40.7943 88.7033 40.7089 88.7646 40.6402C88.8265 40.5705 88.9075 40.5204 88.9975 40.496C89.1082 40.4658 89.2262 40.4773 89.329 40.5285C89.4318 40.5796 89.5123 40.6668 89.5552 40.7734L96.2092 56.7468L87.6318 58.6966C87.4228 58.7439 87.2259 58.8339 87.0532 58.9609C86.8805 59.0879 86.7359 59.2491 86.6283 59.4346L83.6199 64.6164Z" fill="#531B8A"/>
<path d="M45.7535 77.885L56.9757 74.9109C57.3756 74.8049 57.717 74.5441 57.9247 74.1859C58.1324 73.8277 58.1895 73.4013 58.0833 73.0007C57.9771 72.6 57.7164 72.2579 57.3586 72.0496C57.0007 71.8412 56.575 71.7837 56.175 71.8897L45.0553 74.8366L27.6585 77.001C27.4508 77.0208 27.2493 77.0822 27.0657 77.1814C26.8822 77.2807 26.7204 77.4158 26.59 77.5788C26.4596 77.7418 26.3632 77.9294 26.3065 78.1304C26.2497 78.3315 26.2339 78.5419 26.2598 78.7493C26.2857 78.9566 26.3529 79.1567 26.4574 79.3377C26.5618 79.5187 26.7014 79.6769 26.868 79.8029C27.0345 79.9289 27.2246 80.0203 27.4269 80.0715C27.6292 80.1227 27.8397 80.1327 28.0459 80.101L45.5448 77.9258C45.6152 77.9168 45.6849 77.9032 45.7535 77.885ZM24.7392 75.3513C25.1391 75.2453 25.4805 74.9845 25.6882 74.6262C25.8959 74.268 25.953 73.8417 25.8468 73.441L25.5534 72.3338C25.2373 71.1573 25.3223 69.9093 25.7949 68.7874C25.9547 68.4052 25.9563 67.975 25.7994 67.5914C25.6425 67.2077 25.3399 66.9021 24.9582 66.7417C24.5765 66.5813 24.1469 66.5793 23.764 66.7361C23.3811 66.8929 23.0762 67.1957 22.9163 67.5779C22.176 69.3352 22.0427 71.2902 22.5374 73.133L22.8329 74.2479C22.9407 74.6467 23.2018 74.9866 23.559 75.1934C23.9162 75.4001 24.3405 75.4569 24.7392 75.3513ZM65.3388 72.6945C65.6214 72.6194 65.8772 72.4661 66.0769 72.2523C66.2766 72.0385 66.4122 71.7727 66.4683 71.4853C66.5244 71.1979 66.4986 70.9004 66.394 70.6268C66.2895 70.3532 66.1102 70.1144 65.8767 69.9378C64.761 69.0855 63.8408 68.0034 63.1784 66.7645C62.516 65.5257 62.1268 64.1591 62.0371 62.7571C61.9359 61.3692 62.138 59.9761 62.6293 58.6749C63.1206 57.3737 63.8894 56.1956 64.882 55.2228L70.8174 49.296C71.096 49.001 71.2489 48.6088 71.2436 48.2026C71.2383 47.7964 71.0753 47.4081 70.789 47.12C70.5028 46.8319 70.1159 46.6666 69.7103 46.6593C69.3047 46.652 68.9124 46.8032 68.6164 47.0808L62.6765 53.0087C61.366 54.2957 60.3516 55.8535 59.7038 57.5736C59.0559 59.2938 58.7902 61.135 58.9252 62.9691C59.0464 64.8179 59.5626 66.6194 60.439 68.2518C61.3154 69.8841 62.5316 71.3091 64.0052 72.4304C64.1933 72.5723 64.4109 72.6698 64.6419 72.7156C64.8729 72.7613 65.1111 72.7541 65.3388 72.6945Z" fill="#531B8A"/>
<path d="M74.7575 70.1984C74.8534 70.1737 74.9465 70.1393 75.0353 70.0956C75.2201 70.0069 75.3855 69.8826 75.5222 69.7298C75.6589 69.577 75.7642 69.3986 75.832 69.205C75.8998 69.0114 75.9289 68.8062 75.9175 68.6013C75.9062 68.3963 75.8546 68.1956 75.7658 68.0105C74.2369 64.8299 72.8248 62.5705 70.5009 61.1397C68.0979 59.6602 64.9497 59.2416 60.2967 59.7828C59.8857 59.8308 59.5107 60.0404 59.2542 60.3655C58.9978 60.6906 58.8808 61.1045 58.9292 61.5162C58.9775 61.9278 59.1871 62.3036 59.5119 62.5607C59.8367 62.8178 60.2501 62.9353 60.6611 62.8873C68.5749 61.9653 70.4029 64.0401 72.9577 69.3626C73.1146 69.6892 73.3799 69.9512 73.7082 70.1036C74.0366 70.2561 74.4075 70.2896 74.7575 70.1984ZM57.8062 53.6252C57.998 53.5746 58.1782 53.4873 58.3369 53.3682C58.5014 53.2459 58.6402 53.0923 58.7454 52.9162C58.8506 52.7401 58.92 52.5449 58.9499 52.3418C58.9797 52.1387 58.9692 51.9317 58.9191 51.7326C58.869 51.5335 58.7803 51.3462 58.6579 51.1814L56.6508 48.4799C56.4037 48.1473 56.0348 47.9265 55.6253 47.8662C55.2159 47.8058 54.7994 47.9108 54.4675 48.158C54.1356 48.4053 53.9155 48.7745 53.8556 49.1846C53.7957 49.5946 53.9009 50.0118 54.148 50.3444L56.1551 53.0459C56.3411 53.2966 56.5979 53.4858 56.8922 53.589C57.1865 53.6923 57.5049 53.7049 57.8062 53.6252ZM52.5631 58.2546C52.7546 58.2035 52.9347 58.1168 53.0941 57.9991C53.2585 57.8766 53.3971 57.723 53.5021 57.5469C53.6071 57.3707 53.6764 57.1756 53.7061 56.9725C53.7358 56.7695 53.7252 56.5626 53.675 56.3636C53.6249 56.1646 53.536 55.9774 53.4136 55.8127L51.0851 52.6774C50.8379 52.3448 50.469 52.1241 50.0596 52.0637C49.6501 52.0033 49.2336 52.1083 48.9017 52.3556C48.5699 52.6028 48.3497 52.9721 48.2898 53.3821C48.2299 53.7921 48.3351 54.2093 48.5822 54.5419L50.9059 57.6769C51.0926 57.9284 51.3504 58.118 51.646 58.221C51.9415 58.324 52.261 58.3357 52.5631 58.2546ZM46.9177 61.3722C47.1642 61.3069 47.3909 61.182 47.5779 61.0085C47.7649 60.835 47.9065 60.6182 47.9904 60.377C48.0743 60.1359 48.0979 59.8778 48.0591 59.6254C48.0203 59.3729 47.9203 59.1337 47.7679 58.9288L45.6716 56.1039C45.5516 55.9334 45.3988 55.7887 45.2222 55.6782C45.0456 55.5678 44.8487 55.4938 44.6432 55.4607C44.4376 55.4276 44.2276 55.436 44.0254 55.4854C43.8233 55.5348 43.633 55.6243 43.466 55.7485C43.2989 55.8727 43.1584 56.0292 43.0527 56.2087C42.947 56.3882 42.8782 56.587 42.8504 56.7936C42.8227 57.0002 42.8364 57.2103 42.891 57.4115C42.9455 57.6128 43.0397 57.8011 43.168 57.9653L45.2642 60.7903C45.4501 61.0419 45.7071 61.2319 46.0019 61.3356C46.2967 61.4394 46.6158 61.4521 46.9177 61.3722ZM63.0505 48.9939C63.297 48.9285 63.5236 48.8036 63.7106 48.6301C63.8976 48.4566 64.0393 48.2398 64.1232 47.9987C64.2071 47.7576 64.2306 47.4995 64.1918 47.247C64.153 46.9946 64.053 46.7554 63.9006 46.5505L61.8307 43.7639C61.5754 43.4553 61.2118 43.2566 60.8147 43.2088C60.4177 43.1609 60.0176 43.2675 59.697 43.5066C59.3765 43.7457 59.1599 44.099 59.092 44.4936C59.0242 44.8882 59.1102 45.294 59.3324 45.6271L61.4023 48.4138C61.5881 48.6641 61.8443 48.853 62.138 48.9564C62.4317 49.0598 62.7495 49.0728 63.0505 48.9939Z" fill="#531B8A"/>
</g>
<defs>
<linearGradient id="paint0_linear_141_101" x1="60.5263" y1="0" x2="60.5263" y2="121.053" gradientUnits="userSpaceOnUse">
<stop offset="0.246643" stop-color="#531B8A"/>
<stop offset="1" stop-color="#9747FF"/>
</linearGradient>
<clipPath id="clip0_141_101">
<rect width="79.7417" height="39.1546" fill="white" transform="matrix(-0.966631 0.256173 0.256173 0.966631 93.8934 31.1038)"/>
</clipPath>
</defs>
</svg>
