<svg width="43" height="43" viewBox="0 0 43 43" fill="none" xmlns="http://www.w3.org/2000/svg">
<path d="M30.9727 41.4535H12.4144C9.60179 41.4535 6.90442 40.3362 4.91564 38.3474C2.92686 36.3587 1.80957 33.6613 1.80957 30.8487V12.2903C1.80957 9.47777 2.92686 6.7804 4.91564 4.79162C6.90442 2.80283 9.60179 1.68555 12.4144 1.68555H30.9727C33.7853 1.68555 36.4827 2.80283 38.4715 4.79162C40.4602 6.7804 41.5775 9.47777 41.5775 12.2903V30.8487C41.5775 33.6613 40.4602 36.3587 38.4715 38.3474C36.4827 40.3362 33.7853 41.4535 30.9727 41.4535Z" stroke="#AD8200" stroke-width="2" stroke-miterlimit="10"/>
<path d="M21.6937 30.8487C26.8185 30.8487 30.9729 26.6942 30.9729 21.5695C30.9729 16.4447 26.8185 12.2903 21.6937 12.2903C16.569 12.2903 12.4146 16.4447 12.4146 21.5695C12.4146 26.6942 16.569 30.8487 21.6937 30.8487Z" stroke="#AD8200" stroke-width="2" stroke-miterlimit="10"/>
<path d="M33.6239 10.9647C34.356 10.9647 34.9495 10.3712 34.9495 9.63908C34.9495 8.90697 34.356 8.31348 33.6239 8.31348C32.8918 8.31348 32.2983 8.90697 32.2983 9.63908C32.2983 10.3712 32.8918 10.9647 33.6239 10.9647Z" stroke="#AD8200" stroke-width="2" stroke-miterlimit="10"/>
</svg>
