<svg width="71" height="70" viewBox="0 0 71 70" fill="none" xmlns="http://www.w3.org/2000/svg">
<g clip-path="url(#clip0_145_1376)">
<path d="M29.3247 39.652C28.8778 39.0592 28.4528 38.5098 28.0418 37.9499C27.5405 37.2667 27.273 36.4872 27.4594 35.6549C27.603 35.0151 27.4814 34.5326 27.0426 34.0889C26.9222 33.9668 26.8284 33.8201 26.6976 33.6534C21.8254 36.3569 16.7505 36.8464 11.5403 34.8954C7.38013 33.3376 4.22385 30.5097 2.12237 26.543C-2.07365 18.6239 0.113514 8.88632 7.2574 3.50865C14.3017 -1.79388 24.1573 -1.02145 30.4235 5.38221C33.8739 8.90862 35.584 13.2075 35.5469 18.179C35.5099 23.1258 33.6735 27.3354 30.1908 30.971C30.4548 31.268 30.6933 31.5744 30.9746 31.8327C31.0962 31.9442 31.3058 32.0123 31.4736 32.0076C32.6616 31.9747 33.6076 32.4443 34.2571 33.4386C34.6878 34.0983 35.2146 34.3648 36.0078 34.5009C39.9108 35.1701 43.8035 35.9061 47.6811 36.7126C48.9825 36.9826 50.2388 37.4979 51.4962 37.9569C53.2503 38.5979 54.5367 39.8892 55.6737 41.3108C57.3248 43.3733 58.9029 45.4969 60.5065 47.5994C60.8215 48.0126 61.1051 48.4493 61.4618 48.9576C61.6331 48.6348 61.7674 48.3718 61.9121 48.1136C62.3579 47.3188 63.2182 47.0136 64.0275 47.4221C66.0619 48.4481 68.0869 49.4917 70.1039 50.5518C70.9688 51.0061 71.2339 51.8853 70.7893 52.7751C68.0834 58.1998 65.3718 63.6208 62.6508 69.0372C62.1784 69.9775 61.3147 70.2464 60.378 69.7709C58.449 68.7919 56.5259 67.8011 54.6027 66.8115C53.5236 66.2563 53.2573 65.4099 53.8038 64.3041C53.9219 64.0658 54.0388 63.8263 54.1824 63.5352C49.8752 63.2159 46.1759 61.7203 43.3519 58.3007C42.3504 59.0074 41.2817 59.2715 40.1111 58.7891C38.9614 58.3148 38.3559 57.4097 38.1289 56.2065C35.5574 57.2947 32.9858 55.3002 33.5902 52.2974C32.4671 52.3572 31.4748 52.0579 30.7338 51.1598C30.002 50.2735 29.855 49.2522 30.1306 48.137C29.5736 48.0584 29.0248 48.0701 28.5432 47.8952C26.5887 47.1873 25.8604 44.8841 27.009 43.1104C27.7535 41.9611 28.5316 40.8353 29.327 39.652H29.3247ZM35.8989 35.5504C35.9858 35.6995 36.024 35.7828 36.0772 35.8545C37.99 38.4277 39.9016 41.002 41.8213 43.5694C41.9556 43.749 42.1455 43.8969 42.3296 44.0284C44.4889 45.5627 46.6518 47.0899 48.8123 48.6207C48.9374 48.7087 49.1226 48.7827 49.1655 48.9036C49.2384 49.1161 49.3056 49.4049 49.2153 49.5751C49.1469 49.703 48.8158 49.7664 48.6271 49.7288C48.4187 49.6878 48.2322 49.5058 48.0458 49.3732C43.9262 46.4583 39.8055 43.5424 35.6882 40.6229C34.3023 39.6403 32.6558 39.8281 31.6994 41.0889C30.7523 42.3379 30.9769 43.9673 32.2401 45.0778C35.0282 47.5289 37.8348 49.9589 40.5835 52.4547C41.2667 53.0757 41.9093 53.8375 42.3134 54.6639C44.7495 59.6507 48.7695 62.0866 54.1465 62.4516C54.5737 62.481 54.7903 62.3659 54.9825 61.9774C56.8848 58.1375 58.8057 54.3059 60.7277 50.4755C60.8689 50.1949 60.9071 49.9777 60.6953 49.6948C58.9087 47.3188 57.1395 44.9287 55.3634 42.5445C53.6799 40.2836 51.5031 38.8291 48.7799 38.0872C45.3724 37.1587 41.9278 36.4578 38.4473 35.9132C37.6229 35.784 36.7962 35.6772 35.8966 35.5492L35.8989 35.5504ZM34.3474 20.3988C35.6129 11.0933 29.2379 2.48618 20.1511 1.23128C10.9254 -0.0435864 2.42804 6.43285 1.20536 15.7208C-0.0844764 25.5182 6.9031 33.7168 15.6483 34.866C24.654 36.0493 33.1004 29.5741 34.3486 20.3988H34.3474ZM63.4428 48.3061C63.3988 48.272 63.356 48.2368 63.312 48.2028C63.1036 48.434 62.8315 48.6324 62.696 48.9012C60.0307 54.1932 57.3804 59.4946 54.7289 64.7936C54.4464 65.3571 54.5077 65.5601 55.0739 65.8536C56.8744 66.788 58.6806 67.7131 60.4834 68.644C61.3749 69.1042 61.4699 69.0713 61.9226 68.1662C64.5231 62.9705 67.1236 57.776 69.7253 52.5814C70.0888 51.856 70.0367 51.6799 69.3212 51.3113C67.4999 50.3733 65.6775 49.4377 63.855 48.5021C63.7195 48.4329 63.5806 48.3706 63.4428 48.3049V48.3061ZM38.8387 41.5596C38.8642 41.5362 38.8908 41.5115 38.9163 41.488C38.8908 41.4364 38.8734 41.38 38.8398 41.3354C36.9977 38.8597 35.1602 36.3804 33.31 33.9105C32.7589 33.1756 32.0074 32.922 31.1251 33.1369C30.8334 33.2085 30.6307 33.2143 30.449 32.9209C30.1676 32.4654 29.8446 32.0357 29.6257 31.72C28.9252 32.2189 28.3035 32.6614 27.603 33.1603C27.9156 33.5548 28.2282 33.968 28.5628 34.3624C28.7701 34.6066 28.8303 34.8132 28.6647 35.1302C28.3035 35.8204 28.3614 36.5424 28.7921 37.1692C29.5007 38.2011 30.266 39.193 31.0117 40.2073C32.6755 38.585 34.8349 38.5051 36.6515 40.003C37.3404 40.5712 38.1069 41.0431 38.8375 41.5585L38.8387 41.5596ZM39.4489 52.8526C38.3709 51.9041 37.3393 50.9943 36.2706 50.054C35.7959 50.7701 35.3408 51.4345 34.9101 52.1142C34.2548 53.1484 34.5049 54.4092 35.4809 55.0772C36.457 55.7463 37.6994 55.5092 38.4033 54.4949C38.7646 53.9749 39.0865 53.4255 39.4489 52.8526ZM29.9546 40.5923C29.2054 41.7169 28.4274 42.7887 27.7547 43.9239C27.1456 44.9511 27.6227 46.2881 28.6925 46.827C29.7473 47.3587 30.9688 46.9162 31.4574 45.8162C30.2348 44.6599 29.7763 43.2571 30.2845 41.6183C30.4293 41.1511 30.3042 40.8999 29.9546 40.5912V40.5923ZM35.4636 49.3344C34.3972 48.3918 33.3714 47.4843 32.3038 46.5417C31.9252 47.1251 31.5559 47.6193 31.2664 48.1582C30.7431 49.1325 31.1124 50.3534 32.0618 50.9356C33.0171 51.5214 34.2096 51.2561 34.8325 50.3158C35.034 50.0118 35.2274 49.703 35.4636 49.3344ZM40.2397 53.5663C39.9664 54.003 39.7279 54.3763 39.4986 54.7543C38.9429 55.6676 39.1258 56.7805 39.9421 57.4719C40.7584 58.1634 41.8375 58.1422 42.6943 57.378C41.7634 56.217 41.4542 54.644 40.2397 53.5663Z" fill="#AD8200"/>
<path d="M12.7803 12.8249C12.7803 10.4419 15.0184 8.51082 17.7798 8.51082C20.5413 8.51082 22.7794 10.4419 22.7794 12.8249" stroke="#AD8200" stroke-width="2" stroke-linecap="round" stroke-linejoin="round"/>
<path d="M25.6555 14.0822C25.6555 13.5715 25.3221 13.1571 24.911 13.1571H24.8763C24.896 13.2334 24.9087 13.3133 24.9087 13.3966V18.4291C24.9087 18.9527 24.4792 19.3765 23.95 19.3765H19.1762V20.7723C19.1762 21.1866 18.837 21.5212 18.4167 21.5212H17.1442C16.7251 21.5212 16.3847 21.1855 16.3847 20.7723V19.3765H11.6109C11.0818 19.3765 10.6522 18.9527 10.6522 18.4291V13.3966C10.6522 13.3144 10.6638 13.2346 10.6846 13.1571H10.6499C10.2389 13.1571 9.90541 13.5715 9.90541 14.0822L7.86182 24.6673C7.86182 25.1779 8.28095 25.5923 8.79967 25.5923H26.7636C27.2811 25.5923 27.7014 25.1779 27.7014 24.6673L25.6578 14.0822H25.6555Z" fill="#AD8200"/>
<path d="M17.1441 17.1778H18.4165C18.8357 17.1778 19.1761 17.537 19.1761 17.9795V18.9011H23.6488C24.0494 18.9011 24.3736 18.5583 24.3736 18.1357V13.588C24.3736 13.1654 24.0494 12.8226 23.6488 12.8226H11.884C11.4834 12.8226 11.1592 13.1654 11.1592 13.588V18.1357C11.1592 18.5583 11.4834 18.9011 11.884 18.9011H16.3845V17.9795C16.3845 17.537 16.7249 17.1778 17.1441 17.1778Z" fill="#AD8200"/>
<path d="M18.2825 17.6978H17.2775C17.0358 17.6978 16.8398 17.8965 16.8398 18.1415V20.6091C16.8398 20.8542 17.0358 21.0528 17.2775 21.0528H18.2825C18.5242 21.0528 18.7202 20.8542 18.7202 20.6091V18.1415C18.7202 17.8965 18.5242 17.6978 18.2825 17.6978Z" fill="#AD8200"/>
</g>
<defs>
<clipPath id="clip0_145_1376">
<rect width="71" height="70" fill="white"/>
</clipPath>
</defs>
</svg>
