<svg width="103" height="101" viewBox="0 0 103 101" fill="none" xmlns="http://www.w3.org/2000/svg">
<g clip-path="url(#clip0_145_203)">
<path d="M42.5415 57.2124C41.8931 56.357 41.2767 55.5643 40.6804 54.7564C39.9531 53.7706 39.5651 52.646 39.8355 51.4451C40.0438 50.522 39.8674 49.8258 39.2308 49.1856C39.0561 49.0094 38.9201 48.7977 38.7303 48.5572C31.6621 52.4579 24.3001 53.1643 16.7415 50.3492C10.7064 48.1016 6.12756 44.0212 3.07893 38.298C-3.00825 26.8717 0.164676 12.8218 10.5283 5.06264C20.7475 -2.58816 35.045 -1.47365 44.1355 7.76591C49.1409 12.854 51.6218 19.0566 51.5681 26.2298C51.5143 33.3674 48.8504 39.4413 43.7979 44.6869C44.1808 45.1154 44.5268 45.5575 44.935 45.9301C45.1114 46.091 45.4154 46.1893 45.659 46.1825C47.3823 46.1351 48.7546 46.8126 49.6969 48.2472C50.3218 49.1991 51.086 49.5836 52.2366 49.7801C57.8988 50.7455 63.5459 51.8075 69.1712 52.9712C71.0592 53.3607 72.8816 54.1043 74.7058 54.7666C77.2505 55.6914 79.1166 57.5545 80.7661 59.6057C83.1613 62.5817 85.4507 65.6457 87.7771 68.6793C88.234 69.2755 88.6455 69.9056 89.1628 70.639C89.4114 70.1732 89.6063 69.7938 89.8162 69.4211C90.4629 68.2745 91.7109 67.8341 92.885 68.4235C95.8362 69.9039 98.774 71.4096 101.7 72.9391C102.955 73.5946 103.339 74.8633 102.694 76.1471C98.7689 83.9741 94.8351 91.796 90.8879 99.611C90.2025 100.968 88.9495 101.356 87.5906 100.67C84.7923 99.257 82.0023 97.8275 79.2124 96.3996C77.6469 95.5985 77.2606 94.3773 78.0534 92.7817C78.2247 92.4379 78.3943 92.0924 78.6026 91.6723C72.3542 91.2116 66.9876 89.0537 62.8909 84.1198C61.4379 85.1394 59.8876 85.5205 58.1894 84.8244C56.5215 84.1401 55.643 82.8342 55.3138 81.098C51.5832 82.6682 47.8526 79.7905 48.7294 75.4578C47.1001 75.5442 45.6606 75.1122 44.5856 73.8165C43.5241 72.5377 43.3108 71.0641 43.7105 69.455C42.9026 69.3415 42.1064 69.3585 41.4077 69.1061C38.5724 68.0847 37.5158 64.7616 39.1821 62.2023C40.2621 60.544 41.3909 58.9197 42.5448 57.2124H42.5415ZM52.0787 51.2943C52.2047 51.5094 52.2601 51.6297 52.3374 51.733C55.1122 55.4458 57.8854 59.1602 60.6703 62.8645C60.8652 63.1237 61.1406 63.3371 61.4077 63.5268C64.5403 65.7406 67.678 67.9442 70.8122 70.1528C70.9937 70.2799 71.2624 70.3866 71.3246 70.5611C71.4304 70.8676 71.5278 71.2843 71.3968 71.5299C71.2977 71.7145 70.8173 71.806 70.5435 71.7518C70.2412 71.6925 69.9707 71.43 69.7003 71.2386C63.724 67.0329 57.746 62.8256 51.773 58.6131C49.7624 57.1954 47.3739 57.4664 45.9865 59.2856C44.6125 61.0877 44.9384 63.4387 46.7709 65.041C50.8156 68.5776 54.8872 72.0838 58.8747 75.6847C59.8657 76.5807 60.798 77.68 61.3842 78.8724C64.9182 86.0676 70.7501 89.5822 78.5506 90.1089C79.1704 90.1513 79.4845 89.9853 79.7633 89.4247C82.523 83.8843 85.3096 78.3558 88.0979 72.829C88.3028 72.4242 88.3583 72.1109 88.0509 71.7027C85.4591 68.2745 82.8925 64.8259 80.3159 61.3859C77.8736 58.1236 74.7158 56.025 70.7652 54.9546C65.8219 53.6148 60.8248 52.6036 55.7757 51.8177C54.5798 51.6314 53.3805 51.4772 52.0754 51.2926L52.0787 51.2943ZM49.8279 29.4327C51.6638 16.0061 42.4155 3.58736 29.2333 1.77671C15.8496 -0.0627352 3.52237 9.28184 1.74862 22.683C-0.12255 36.8193 10.0144 48.6486 22.701 50.3069C35.7656 52.0142 48.0189 42.6713 49.8296 29.4327H49.8279ZM92.0368 69.6989C91.9729 69.6498 91.9108 69.599 91.847 69.5499C91.5446 69.8835 91.1499 70.1698 90.9534 70.5577C87.0867 78.1932 83.2419 85.8423 79.3954 93.488C78.9856 94.3011 79.0746 94.5941 79.896 95.0175C82.5079 96.3658 85.1282 97.7005 87.7435 99.0436C89.0368 99.7076 89.1746 99.6602 89.8313 98.3543C93.6039 90.8576 97.3765 83.3626 101.151 75.8677C101.678 74.8209 101.603 74.5668 100.565 74.035C97.9224 72.6817 95.2786 71.3317 92.6347 69.9818C92.4382 69.8819 92.2366 69.7921 92.0368 69.6972V69.6989ZM56.3434 59.9648C56.3804 59.9309 56.419 59.8953 56.456 59.8615C56.419 59.7869 56.3938 59.7056 56.3451 59.6413C53.6727 56.0691 51.0071 52.4918 48.3229 48.9281C47.5234 47.8678 46.4333 47.502 45.1534 47.8119C44.7301 47.9152 44.4361 47.9237 44.1724 47.5003C43.7643 46.8431 43.2956 46.2231 42.9782 45.7675C41.962 46.4874 41.06 47.1259 40.0438 47.8458C40.4973 48.4149 40.9508 49.0111 41.4362 49.5802C41.7369 49.9325 41.8242 50.2306 41.584 50.688C41.06 51.6839 41.144 52.7256 41.7688 53.63C42.7968 55.1189 43.907 56.5501 44.9888 58.0135C47.4025 55.6727 50.5351 55.5576 53.1705 57.7188C54.1699 58.5386 55.2819 59.2195 56.3418 59.9631L56.3434 59.9648ZM57.2286 76.2589C55.6648 74.8904 54.1682 73.5777 52.6179 72.221C51.9292 73.2542 51.2691 74.2128 50.6443 75.1935C49.6936 76.6858 50.0564 78.5049 51.4724 79.4686C52.8883 80.4341 54.6906 80.0919 55.7119 78.6285C56.2359 77.8782 56.7029 77.0855 57.2286 76.2589ZM43.4552 58.5691C42.3685 60.1917 41.2397 61.7382 40.2638 63.376C39.3803 64.8581 40.0723 66.7873 41.6244 67.5648C43.1545 68.332 44.9266 67.6935 45.6354 66.1064C43.8617 64.438 43.1965 62.414 43.9339 60.0495C44.1439 59.3753 43.9625 59.0129 43.4552 58.5674V58.5691ZM51.4472 71.1827C49.9002 69.8226 48.412 68.5133 46.8633 67.1532C46.314 67.995 45.7782 68.7081 45.3583 69.4855C44.5991 70.8913 45.1349 72.6529 46.5122 73.493C47.898 74.3382 49.6281 73.9554 50.5317 72.5987C50.824 72.16 51.1045 71.7145 51.4472 71.1827ZM58.3759 77.2887C57.9795 77.9188 57.6334 78.4574 57.3009 79.0028C56.4946 80.3206 56.76 81.9263 57.9442 82.9239C59.1284 83.9216 60.6938 83.8911 61.9368 82.7884C60.5863 81.1133 60.1379 78.8436 58.3759 77.2887Z" fill="#AD8200"/>
<path d="M18.5403 18.5045C18.5403 15.0662 21.7871 12.2799 25.7932 12.2799C29.7992 12.2799 33.046 15.0662 33.046 18.5045" stroke="#AD8200" stroke-width="2" stroke-linecap="round" stroke-linejoin="round"/>
<path d="M37.2184 20.3186C37.2184 19.5818 36.7347 18.9839 36.1384 18.9839H36.088C36.1166 19.094 36.135 19.2092 36.135 19.3294V26.5906C36.135 27.3461 35.5119 27.9575 34.7443 27.9575H27.8189V29.9714C27.8189 30.5693 27.3268 31.0521 26.717 31.0521H24.8711C24.263 31.0521 23.7692 30.5676 23.7692 29.9714V27.9575H16.8439C16.0762 27.9575 15.4531 27.3461 15.4531 26.5906V19.3294C15.4531 19.2109 15.4699 19.0957 15.5001 18.9839H15.4497C14.8534 18.9839 14.3697 19.5818 14.3697 20.3186L11.405 35.5914C11.405 36.3282 12.0131 36.9261 12.7656 36.9261H38.8259C39.5767 36.9261 40.1864 36.3282 40.1864 35.5914L37.2218 20.3186H37.2184Z" fill="#AD8200"/>
<path d="M24.871 24.7851H26.717C27.325 24.7851 27.8189 25.3034 27.8189 25.9419V27.2715H34.3075C34.8887 27.2715 35.359 26.777 35.359 26.1672V19.6055C35.359 18.9957 34.8887 18.5012 34.3075 18.5012H17.2402C16.659 18.5012 16.1887 18.9957 16.1887 19.6055V26.1672C16.1887 26.777 16.659 27.2715 17.2402 27.2715H23.7691V25.9419C23.7691 25.3034 24.263 24.7851 24.871 24.7851Z" fill="#AD8200"/>
<path d="M26.5221 25.5354H25.0641C24.7135 25.5354 24.4292 25.822 24.4292 26.1756V29.736C24.4292 30.0896 24.7135 30.3762 25.0641 30.3762H26.5221C26.8727 30.3762 27.157 30.0896 27.157 29.736V26.1756C27.157 25.822 26.8727 25.5354 26.5221 25.5354Z" fill="#AD8200"/>
</g>
<defs>
<clipPath id="clip0_145_203">
<rect width="103" height="101" fill="white"/>
</clipPath>
</defs>
</svg>
