<svg width="151" height="38" viewBox="0 0 151 38" fill="none" xmlns="http://www.w3.org/2000/svg">
<path d="M3 16.5C1.61929 16.5 0.5 17.6193 0.5 19C0.5 20.3807 1.61929 21.5 3 21.5V16.5ZM149.768 20.7678C150.744 19.7915 150.744 18.2085 149.768 17.2322L133.858 1.32233C132.882 0.34602 131.299 0.34602 130.322 1.32233C129.346 2.29864 129.346 3.88155 130.322 4.85786L144.464 19L130.322 33.1421C129.346 34.1184 129.346 35.7014 130.322 36.6777C131.299 37.654 132.882 37.654 133.858 36.6777L149.768 20.7678ZM3 21.5H148V16.5H3V21.5Z" fill="#AD8200"/>
</svg>
