<svg width="33" height="33" viewBox="0 0 33 33" fill="none" xmlns="http://www.w3.org/2000/svg">
<path d="M27.5687 15.125H5.43125C4.70983 15.125 4.125 15.7098 4.125 16.4312V16.5688C4.125 17.2902 4.70983 17.875 5.43125 17.875H27.5687C28.2902 17.875 28.875 17.2902 28.875 16.5688V16.4312C28.875 15.7098 28.2902 15.125 27.5687 15.125Z" fill="#531B8A"/>
<path d="M27.5687 22H5.43125C4.70983 22 4.125 22.5848 4.125 23.3063V23.4437C4.125 24.1652 4.70983 24.75 5.43125 24.75H27.5687C28.2902 24.75 28.875 24.1652 28.875 23.4437V23.3063C28.875 22.5848 28.2902 22 27.5687 22Z" fill="#531B8A"/>
<path d="M27.5687 8.25H5.43125C4.70983 8.25 4.125 8.83483 4.125 9.55625V9.69375C4.125 10.4152 4.70983 11 5.43125 11H27.5687C28.2902 11 28.875 10.4152 28.875 9.69375V9.55625C28.875 8.83483 28.2902 8.25 27.5687 8.25Z" fill="#531B8A"/>
</svg>
