<svg width="100" height="100" viewBox="0 0 100 100" fill="none" xmlns="http://www.w3.org/2000/svg">
<path d="M36.25 71.4583C45 71.4583 53.125 68.3333 59.5833 62.5L63.3333 66.25L56.0417 73.5417L65.8333 83.3333L68.75 80.4167L85 96.6667C86.25 97.9167 88.125 98.75 90 98.75C91.875 98.75 93.75 97.9167 95 96.6667L97.0833 94.5833C99.7917 91.875 99.7917 87.2917 97.0833 84.5833L80.625 68.75L83.5417 65.8333L73.75 56.0417L66.4583 63.3333L62.5 59.5833C68.3333 53.125 71.4583 45 71.4583 36.25C71.4583 26.875 67.7083 17.9167 61.25 11.4583C54.5833 4.79167 45.8333 1.25 36.4583 1.25C27.0833 1.25 17.9167 4.79167 11.4583 11.25C4.79167 17.9167 1.25 26.6667 1.25 36.0417C1.25 45.4167 5 54.375 11.4583 60.8333C17.9167 67.7083 26.875 71.4583 36.25 71.4583ZM77.7083 71.6667L93.9583 87.9167C95 88.9583 95 90.8333 93.9583 92.0833L91.875 94.1667C90.8333 95.2083 88.9583 95.2083 87.7083 94.1667L71.4583 77.9167L74.5833 74.7917L77.7083 71.6667ZM77.7083 65.8333L71.875 71.6667L66.0417 77.5L62.0833 73.5417L73.9583 61.6667L77.7083 65.8333ZM14.375 14.375C20.2083 8.33333 27.9167 5.20833 36.25 5.20833C44.5833 5.20833 52.2917 8.33333 58.125 14.375C63.9583 20.4167 67.2917 28.125 67.2917 36.25C67.2917 44.5833 64.1667 52.2917 58.125 58.125C52.0833 63.9583 44.375 67.2917 36.25 67.2917C28.125 67.2917 20.2083 64.1667 14.375 58.125C8.54167 52.0833 5.20833 44.375 5.20833 36.25C5.20833 27.9167 8.54167 20.2083 14.375 14.375Z" fill="#AD8200"/>
<path d="M35.6249 60.4167L36.2499 60.625L36.8749 60.4167C40.8333 59.1667 44.5833 56.875 47.7083 53.5417C52.7083 48.125 55.4166 41.0417 55.4166 33.3333V22.5H53.3333C44.1666 22.5 37.9166 15 37.9166 15L36.2499 13.125L34.5833 15C34.5833 15 28.1249 22.5 19.1666 22.5H17.0833V33.3333C17.0833 41.0417 19.7916 48.3333 24.7916 53.5417C27.9166 56.875 31.6666 59.1667 35.6249 60.4167ZM21.2499 26.4583C28.3333 25.8333 33.7499 21.6667 36.2499 19.1667C38.7499 21.4583 44.1666 25.625 51.2499 26.4583V33.3333C51.2499 40 48.9583 46.25 44.5833 50.8333C42.0833 53.5417 39.3749 55.4167 36.2499 56.4583C33.1249 55.4167 30.4166 53.5417 27.9166 50.8333C23.5416 46.25 21.2499 40 21.2499 33.3333V26.4583Z" fill="#AD8200"/>
<path d="M46.875 33.125L43.9583 30.2083L33.75 40.2083L28.5417 35L25.625 37.9167L33.75 46.0417L46.875 33.125Z" fill="#AD8200"/>
</svg>
