<svg width="66" height="66" viewBox="0 0 66 66" fill="none" xmlns="http://www.w3.org/2000/svg">
<g clip-path="url(#clip0_145_2186)">
<path d="M23.9252 47.1625C29.7002 47.1625 35.0627 45.1 39.3252 41.25L41.8002 43.725L36.9877 48.5375L43.4502 55L45.3752 53.075L56.1002 63.8C56.9252 64.625 58.1627 65.175 59.4002 65.175C60.6377 65.175 61.8752 64.625 62.7002 63.8L64.0752 62.425C65.8627 60.6375 65.8627 57.6125 64.0752 55.825L53.2127 45.375L55.1377 43.45L48.6752 36.9875L43.8627 41.8L41.2502 39.325C45.1002 35.0625 47.1627 29.7 47.1627 23.925C47.1627 17.7375 44.6877 11.825 40.4252 7.5625C36.0252 3.1625 30.2502 0.824997 24.0627 0.824997C17.8752 0.824997 11.8252 3.1625 7.5627 7.425C3.1627 11.825 0.825195 17.6 0.825195 23.7875C0.825195 29.975 3.3002 35.8875 7.5627 40.15C11.8252 44.6875 17.7377 47.1625 23.9252 47.1625ZM51.2877 47.3L62.0127 58.025C62.7002 58.7125 62.7002 59.95 62.0127 60.775L60.6377 62.15C59.9502 62.8375 58.7127 62.8375 57.8877 62.15L47.1627 51.425L49.2252 49.3625L51.2877 47.3ZM51.2877 43.45L47.4377 47.3L43.5877 51.15L40.9752 48.5375L48.8127 40.7L51.2877 43.45ZM9.4877 9.4875C13.3377 5.5 18.4252 3.4375 23.9252 3.4375C29.4252 3.4375 34.5127 5.5 38.3627 9.4875C42.2127 13.475 44.4127 18.5625 44.4127 23.925C44.4127 29.425 42.3502 34.5125 38.3627 38.3625C34.3752 42.2125 29.2877 44.4125 23.9252 44.4125C18.5627 44.4125 13.3377 42.35 9.4877 38.3625C5.6377 34.375 3.4377 29.2875 3.4377 23.925C3.4377 18.425 5.6377 13.3375 9.4877 9.4875Z" fill="#AD8200"/>
<path d="M23.5124 39.875L23.9249 40.0125L24.3374 39.875C26.9499 39.05 29.4249 37.5375 31.4874 35.3375C34.7874 31.7625 36.5749 27.0875 36.5749 22V14.85H35.1999C29.1499 14.85 25.0249 9.90001 25.0249 9.90001L23.9249 8.66251L22.8249 9.90001C22.8249 9.90001 18.5624 14.85 12.6499 14.85H11.2749V22C11.2749 27.0875 13.0624 31.9 16.3624 35.3375C18.4249 37.5375 20.8999 39.05 23.5124 39.875ZM14.0249 17.4625C18.6999 17.05 22.2749 14.3 23.9249 12.65C25.5749 14.1625 29.1499 16.9125 33.8249 17.4625V22C33.8249 26.4 32.3124 30.525 29.4249 33.55C27.7749 35.3375 25.9874 36.575 23.9249 37.2625C21.8624 36.575 20.0749 35.3375 18.4249 33.55C15.5374 30.525 14.0249 26.4 14.0249 22V17.4625Z" fill="#AD8200"/>
<path d="M30.9376 21.8625L29.0126 19.9375L22.2751 26.5375L18.8376 23.1L16.9126 25.025L22.2751 30.3875L30.9376 21.8625Z" fill="#AD8200"/>
</g>
<defs>
<clipPath id="clip0_145_2186">
<rect width="66" height="66" fill="white"/>
</clipPath>
</defs>
</svg>
