<svg width="41" height="41" viewBox="0 0 41 41" fill="none" xmlns="http://www.w3.org/2000/svg">
<path d="M34.256 40.7393H6.9784C3.25873 40.7393 0.247559 37.7281 0.247559 34.0085V6.73084C0.247559 3.01117 3.25873 0 6.9784 0H34.0789C37.7986 0 40.8097 3.01117 40.8097 6.73084V33.8313C40.9869 37.7281 37.9757 40.7393 34.256 40.7393ZM6.9784 1.77127C4.14436 1.77127 2.01883 4.07393 2.01883 6.73084V33.8313C2.01883 36.6654 4.32149 38.7909 6.9784 38.7909H34.0789C36.9129 38.7909 39.0385 36.4882 39.0385 33.8313V6.73084C39.0385 3.8968 36.7358 1.77127 34.0789 1.77127H6.9784Z" fill="#AD8200"/>
<path d="M16.1889 30.8202C13.3549 30.8202 10.698 30.1117 8.21818 28.5176C7.86392 28.3404 7.68679 27.8091 7.86392 27.4548C8.04105 27.1005 8.3953 26.7463 8.74956 26.9234C10.3437 27.1005 12.115 26.9234 13.532 26.2149C12.115 25.5064 10.8751 24.2665 10.5208 22.8495C10.3437 22.4952 10.5208 22.3181 10.698 21.9639C9.45807 20.9011 8.74956 19.3069 8.74956 17.7128C8.74956 17.3585 8.92669 17.0043 9.10381 17.0043C9.10381 17.0043 9.28094 17.0043 9.28094 16.8272C9.10381 15.9415 8.92669 15.0559 8.92669 14.1702C8.92669 13.1075 9.28094 12.2218 9.6352 11.3362C9.81232 10.982 9.98945 10.8048 10.3437 10.8048C10.698 10.8048 10.8751 10.982 11.0522 11.1591C13.1777 13.6389 16.1889 15.4101 19.3772 15.7644V15.5873C19.3772 12.399 22.0341 9.91919 25.0453 9.91919C26.4623 9.91919 27.8793 10.4506 28.9421 11.3362C29.8277 11.1591 30.5362 10.8048 31.2447 10.4506C31.599 10.2734 31.9533 10.2734 32.3075 10.4506C32.6618 10.6277 32.6618 10.982 32.6618 11.3362C32.6618 11.5133 32.4846 11.8676 32.3075 12.0447C32.6618 12.0447 32.8389 12.0447 33.1931 12.399C33.3703 12.7532 33.5474 13.1075 33.1931 13.4617C32.4846 14.3474 31.7761 15.233 30.8905 15.9415V16.1186C30.8905 23.3809 25.3995 30.8202 16.1889 30.8202ZM12.2921 28.3404C13.532 28.6947 14.7719 28.8718 16.1889 28.8718C24.3368 28.8718 29.1192 22.3181 29.1192 16.1186V15.5873C29.1192 15.233 29.2963 15.0559 29.4735 14.8788C29.4735 14.8788 29.6506 14.8788 29.6506 14.7016C29.2963 14.7016 28.9421 14.5245 28.765 14.1702C28.5878 13.816 28.765 13.4617 28.9421 13.2846H28.765C28.4107 13.2846 28.2336 13.2846 27.8793 13.1075C27.1708 12.399 26.108 11.8676 25.0453 11.8676C22.9198 11.8676 21.1485 13.6389 21.1485 15.7644C21.1485 16.1186 21.1485 16.2958 21.3256 16.65C21.3256 17.0043 21.3256 17.1814 21.1485 17.3585C20.9714 17.5357 20.6171 17.7128 20.44 17.7128C16.7203 17.5357 13.3549 15.9415 10.698 13.4617V14.1702C10.698 15.4101 11.4065 16.65 12.4692 17.3585C12.8235 17.5357 13.0006 18.067 12.8235 18.4213C12.6464 18.7756 12.2921 19.1298 11.9379 18.9527C11.5836 18.9527 11.2293 18.9527 10.8751 18.7756C11.4065 20.0155 12.4692 21.0782 13.8863 21.2553C14.2405 21.2553 14.5948 21.6096 14.5948 22.141C14.5948 22.4952 14.4176 22.8495 13.8863 23.0266C13.532 23.0266 13.3549 23.2037 13.0006 23.2037C13.7091 24.0894 14.7719 24.6208 16.0118 24.6208C16.366 24.6208 16.7203 24.7979 16.8974 25.1521C17.0745 25.5064 16.8974 25.8607 16.5432 26.2149C15.3033 27.4548 13.8863 27.9862 12.2921 28.3404Z" fill="#AD8200"/>
</svg>
