<svg width="49" height="49" viewBox="0 0 49 49" fill="none" xmlns="http://www.w3.org/2000/svg">
<path d="M41.0488 48.2314H8.75479C4.35106 48.2314 0.786133 44.6664 0.786133 40.2627V7.96866C0.786133 3.56493 4.35106 0 8.75479 0H40.8391C45.2429 0 48.8078 3.56493 48.8078 7.96866V40.053C49.0175 44.6664 45.4526 48.2314 41.0488 48.2314ZM8.75479 2.09702C5.39957 2.09702 2.88315 4.82314 2.88315 7.96866V40.053C2.88315 43.4082 5.60927 45.9246 8.75479 45.9246H40.8391C44.1944 45.9246 46.7108 43.1985 46.7108 40.053V7.96866C46.7108 4.61344 43.9847 2.09702 40.8391 2.09702H8.75479Z" fill="#AD8200"/>
<path d="M19.6592 36.4882C16.304 36.4882 13.1584 35.6494 10.2226 33.7621C9.80321 33.5524 9.59351 32.9233 9.80321 32.5039C10.0129 32.0845 10.4323 31.6651 10.8517 31.8748C12.739 32.0845 14.8361 31.8748 16.5137 31.036C14.8361 30.1971 13.3681 28.7292 12.9487 27.0516C12.739 26.6322 12.9487 26.4225 13.1584 26.0031C11.6905 24.7449 10.8517 22.8576 10.8517 20.9703C10.8517 20.5509 11.0614 20.1315 11.2711 20.1315C11.2711 20.1315 11.4808 20.1315 11.4808 19.9218C11.2711 18.8733 11.0614 17.8248 11.0614 16.7762C11.0614 15.518 11.4808 14.4695 11.9002 13.421C12.1099 13.0016 12.3196 12.7919 12.739 12.7919C13.1584 12.7919 13.3681 13.0016 13.5778 13.2113C16.0943 16.1471 19.6592 18.2442 23.4338 18.6636V18.4539C23.4338 14.6792 26.5793 11.7434 30.1443 11.7434C31.8219 11.7434 33.4995 12.3725 34.7577 13.421C35.8062 13.2113 36.645 12.7919 37.4838 12.3725C37.9032 12.1628 38.3226 12.1628 38.742 12.3725C39.1614 12.5822 39.1614 13.0016 39.1614 13.421C39.1614 13.6307 38.9517 14.0501 38.742 14.2598C39.1614 14.2598 39.3711 14.2598 39.7905 14.6792C40.0002 15.0986 40.2099 15.518 39.7905 15.9374C38.9517 16.9859 38.1129 18.0345 37.0644 18.8733V19.083C37.0644 27.6807 30.5637 36.4882 19.6592 36.4882ZM15.0458 33.5524C16.5137 33.9718 17.9816 34.1815 19.6592 34.1815C29.3055 34.1815 34.9674 26.4225 34.9674 19.083V18.4539C34.9674 18.0345 35.1771 17.8248 35.3868 17.6151C35.3868 17.6151 35.5965 17.6151 35.5965 17.4054C35.1771 17.4054 34.7577 17.1956 34.548 16.7762C34.3383 16.3568 34.548 15.9374 34.7577 15.7277H34.548C34.1286 15.7277 33.9189 15.7277 33.4995 15.518C32.6607 14.6792 31.4025 14.0501 30.1443 14.0501C27.6278 14.0501 25.5308 16.1471 25.5308 18.6636C25.5308 19.083 25.5308 19.2927 25.7405 19.7121C25.7405 20.1315 25.7405 20.3412 25.5308 20.5509C25.3211 20.7606 24.9017 20.9703 24.692 20.9703C20.2883 20.7606 16.304 18.8733 13.1584 15.9374V16.7762C13.1584 18.2442 13.9972 19.7121 15.2555 20.5509C15.6749 20.7606 15.8846 21.3897 15.6749 21.8091C15.4652 22.2285 15.0458 22.6479 14.6264 22.4382C14.2069 22.4382 13.7875 22.4382 13.3681 22.2285C13.9972 23.6964 15.2555 24.9546 16.9331 25.1643C17.3525 25.1643 17.7719 25.5837 17.7719 26.2128C17.7719 26.6322 17.5622 27.0516 16.9331 27.2613C16.5137 27.2613 16.304 27.471 15.8846 27.471C16.7234 28.5195 17.9816 29.1486 19.4495 29.1486C19.8689 29.1486 20.2883 29.3583 20.498 29.7777C20.7077 30.1971 20.498 30.6166 20.0786 31.036C18.6107 32.5039 16.9331 33.133 15.0458 33.5524Z" fill="#AD8200"/>
</svg>
