<svg width="72" height="72" viewBox="0 0 72 72" fill="none" xmlns="http://www.w3.org/2000/svg">
<g clip-path="url(#clip0_145_2190)">
<path d="M56.304 41.904C58.392 40.176 59.76 37.512 59.76 34.56C59.76 29.592 55.728 25.2 51.12 25.2C46.512 25.2 42.48 29.592 42.48 34.56C42.48 37.512 43.848 40.176 45.936 41.904C45 42.264 44.136 42.624 43.272 43.128C40.536 39.888 36.936 37.368 32.76 36.144C35.928 33.912 38.16 30.096 38.16 25.92C38.16 19.368 32.76 13.68 26.64 13.68C20.52 13.68 15.12 19.368 15.12 25.92C15.12 30.096 17.352 33.912 20.52 36.144C11.592 38.808 5.04004 47.088 5.04004 56.88C5.04004 57.672 5.68804 58.32 6.48004 58.32H65.52C66.312 58.32 66.96 57.672 66.96 56.88C66.96 49.968 62.496 44.064 56.304 41.904ZM45.36 34.56C45.36 31.536 47.88 28.08 51.12 28.08C54.36 28.08 56.88 31.536 56.88 34.56C56.88 37.584 54.36 41.04 51.12 41.04C47.88 41.04 45.36 37.584 45.36 34.56ZM18 25.92C18 21.528 21.672 16.56 26.64 16.56C31.608 16.56 35.28 21.528 35.28 25.92C35.28 30.312 31.608 35.28 26.64 35.28C21.672 35.28 18 30.312 18 25.92ZM7.99204 55.44C8.71204 45.792 16.848 38.16 26.64 38.16C36.504 38.16 44.568 45.792 45.288 55.44H7.99204ZM48.168 55.44C47.952 51.84 46.8 48.384 44.928 45.504C46.8 44.496 48.888 43.92 51.12 43.92C57.816 43.92 63.288 48.96 64.008 55.44H48.168Z" fill="#AD8200"/>
<path d="M780.48 -568.8V643.68H-504V-568.8H780.48ZM786.24 -574.56H-509.76V649.44H786.24V-574.56Z" fill="#0000FF"/>
</g>
<defs>
<clipPath id="clip0_145_2190">
<rect width="72" height="72" fill="white"/>
</clipPath>
</defs>
</svg>
