<svg width="113" height="113" viewBox="0 0 113 113" fill="none" xmlns="http://www.w3.org/2000/svg">
<g clip-path="url(#clip0_145_180)">
<path d="M88.3659 65.766C91.6429 63.054 93.7899 58.873 93.7899 54.24C93.7899 46.443 87.4619 39.55 80.2299 39.55C72.9979 39.55 66.6699 46.443 66.6699 54.24C66.6699 58.873 68.8169 63.054 72.0939 65.766C70.6249 66.331 69.2689 66.896 67.9129 67.687C63.6189 62.602 57.9689 58.647 51.4149 56.726C56.3869 53.223 59.8899 47.234 59.8899 40.68C59.8899 30.397 51.4149 21.47 41.8099 21.47C32.2049 21.47 23.7299 30.397 23.7299 40.68C23.7299 47.234 27.2329 53.223 32.2049 56.726C18.1929 60.907 7.90991 73.902 7.90991 89.27C7.90991 90.513 8.92691 91.53 10.1699 91.53H102.83C104.073 91.53 105.09 90.513 105.09 89.27C105.09 78.422 98.0839 69.156 88.3659 65.766ZM71.1899 54.24C71.1899 49.494 75.1449 44.07 80.2299 44.07C85.3149 44.07 89.2699 49.494 89.2699 54.24C89.2699 58.986 85.3149 64.41 80.2299 64.41C75.1449 64.41 71.1899 58.986 71.1899 54.24ZM28.2499 40.68C28.2499 33.787 34.0129 25.99 41.8099 25.99C49.6069 25.99 55.3699 33.787 55.3699 40.68C55.3699 47.573 49.6069 55.37 41.8099 55.37C34.0129 55.37 28.2499 47.573 28.2499 40.68ZM12.5429 87.01C13.6729 71.868 26.4419 59.89 41.8099 59.89C57.2909 59.89 69.9469 71.868 71.0769 87.01H12.5429ZM75.5969 87.01C75.2579 81.36 73.4499 75.936 70.5119 71.416C73.4499 69.834 76.7269 68.93 80.2299 68.93C90.7389 68.93 99.3269 76.84 100.457 87.01H75.5969Z" fill="#AD8200"/>
<path d="M1224.92 -892.7V1010.22H-791V-892.7H1224.92ZM1233.96 -901.74H-800.04V1019.26H1233.96V-901.74Z" fill="#0000FF"/>
</g>
<defs>
<clipPath id="clip0_145_180">
<rect width="113" height="113" fill="white"/>
</clipPath>
</defs>
</svg>
