<svg width="97" height="97" viewBox="0 0 97 97" fill="none" xmlns="http://www.w3.org/2000/svg">
<path d="M63.2441 76.436C63.6321 76.824 64.2141 77.018 64.6021 77.018C65.1841 77.018 65.5721 76.824 65.9601 76.436L79.9281 62.468C80.7041 61.692 80.7041 60.528 79.9281 59.752C79.1521 58.976 77.9881 58.976 77.2121 59.752L64.6021 72.362L58.9761 66.736C58.2001 65.96 57.0361 65.96 56.2601 66.736C55.4841 67.512 55.4841 68.676 56.2601 69.452L63.2441 76.436ZM60.1401 19.206C60.1401 8.924 53.1561 1.94 43.0681 1.94C32.7861 1.94 25.9961 8.924 25.9961 19.206C25.9961 29.488 32.9801 40.934 43.0681 40.934C53.1561 40.934 60.1401 29.488 60.1401 19.206ZM29.8761 19.206C29.8761 11.058 34.9201 5.82 43.0681 5.82C51.2161 5.82 56.2601 11.058 56.2601 19.206C56.2601 28.518 50.0521 37.054 43.0681 37.054C36.0841 37.054 29.8761 28.712 29.8761 19.206Z" fill="#AD8200"/>
<path d="M9.70006 80.898H44.6201C49.2761 89.24 58.0061 95.06 68.2881 95.06C83.0321 95.06 95.0601 83.032 95.0601 68.094C95.0601 53.156 83.0321 41.128 68.0941 41.128C61.8861 41.128 56.0661 43.262 51.4101 46.948C49.2761 46.754 47.1421 46.56 44.6201 46.56C41.5161 46.56 38.4121 46.56 35.5021 46.754C27.5481 47.336 20.7581 49.082 15.5201 52.186C8.14806 56.26 3.68606 62.468 1.94006 70.81C1.35806 73.332 2.13406 76.048 3.68606 77.988C5.23806 79.928 7.37206 80.898 9.70006 80.898ZM91.1801 68.094C91.1801 80.898 80.8981 91.18 68.0941 91.18C55.2901 91.18 45.0081 80.898 45.0081 68.094C45.0081 55.29 55.2901 45.008 68.0941 45.008C80.8981 45.008 91.1801 55.484 91.1801 68.094ZM6.01406 71.78C7.56606 64.214 11.6401 59.364 16.6841 56.26C23.2801 52.186 31.8161 51.022 39.5761 50.634C41.1281 50.634 42.8741 50.634 44.6201 50.634C45.5901 50.634 46.7541 50.634 47.7241 50.828C43.6501 55.484 41.3221 61.692 41.3221 68.288C41.3221 71.392 41.9041 74.496 42.8741 77.212H9.70006C8.73006 77.212 7.56606 76.824 6.79006 75.854C6.01406 74.69 5.62606 73.138 6.01406 71.78Z" fill="#AD8200"/>
</svg>
