<svg width="66" height="66" viewBox="0 0 66 66" fill="none" xmlns="http://www.w3.org/2000/svg">
<path d="M43.032 52.008C43.296 52.272 43.692 52.404 43.956 52.404C44.352 52.404 44.616 52.272 44.88 52.008L54.384 42.504C54.912 41.976 54.912 41.184 54.384 40.656C53.856 40.128 53.064 40.128 52.536 40.656L43.956 49.236L40.128 45.408C39.6 44.88 38.808 44.88 38.28 45.408C37.752 45.936 37.752 46.728 38.28 47.256L43.032 52.008ZM40.92 13.068C40.92 6.07201 36.168 1.32001 29.304 1.32001C22.308 1.32001 17.688 6.07201 17.688 13.068C17.688 20.064 22.44 27.852 29.304 27.852C36.168 27.852 40.92 20.064 40.92 13.068ZM20.328 13.068C20.328 7.52401 23.76 3.96001 29.304 3.96001C34.848 3.96001 38.28 7.52401 38.28 13.068C38.28 19.404 34.056 25.212 29.304 25.212C24.552 25.212 20.328 19.536 20.328 13.068Z" fill="#AD8200"/>
<path d="M6.59995 55.044H30.36C33.528 60.72 39.468 64.68 46.464 64.68C56.496 64.68 64.68 56.496 64.68 46.332C64.68 36.168 56.496 27.984 46.332 27.984C42.108 27.984 38.148 29.436 34.98 31.944C33.528 31.812 32.076 31.68 30.36 31.68C28.248 31.68 26.136 31.68 24.156 31.812C18.744 32.208 14.124 33.396 10.56 35.508C5.54395 38.28 2.50795 42.504 1.31995 48.18C0.923955 49.896 1.45195 51.744 2.50795 53.064C3.56395 54.384 5.01595 55.044 6.59995 55.044ZM62.04 46.332C62.04 55.044 55.044 62.04 46.332 62.04C37.62 62.04 30.624 55.044 30.624 46.332C30.624 37.62 37.62 30.624 46.332 30.624C55.044 30.624 62.04 37.752 62.04 46.332ZM4.09195 48.84C5.14795 43.692 7.91995 40.392 11.352 38.28C15.84 35.508 21.648 34.716 26.928 34.452C27.984 34.452 29.172 34.452 30.36 34.452C31.02 34.452 31.812 34.452 32.472 34.584C29.7 37.752 28.116 41.976 28.116 46.464C28.116 48.576 28.512 50.688 29.172 52.536H6.59995C5.93995 52.536 5.14795 52.272 4.61995 51.612C4.09195 50.82 3.82795 49.764 4.09195 48.84Z" fill="#AD8200"/>
</svg>
