<svg width="199" height="199" viewBox="0 0 199 199" fill="none" xmlns="http://www.w3.org/2000/svg">
<path d="M99.7759 136.931C113.04 136.931 123.793 126.178 123.793 112.914C123.793 99.6494 113.04 88.8965 99.7759 88.8965C86.5115 88.8965 75.7586 99.6494 75.7586 112.914C75.7586 126.178 86.5115 136.931 99.7759 136.931Z" fill="#BBBBBB"/>
<path d="M171.828 54.5862H149.327C147.886 54.5866 146.482 54.1334 145.313 53.2909C144.144 52.4485 143.27 51.2595 142.815 49.8926L140.646 43.3804C139.735 40.6478 137.986 38.2713 135.649 36.5878C133.311 34.9042 130.503 33.9988 127.622 34H71.9227C69.0423 34.0007 66.2352 34.9078 63.8989 36.5925C61.5626 38.2773 59.8156 40.6545 58.9054 43.3873L56.737 49.8926C56.2817 51.2595 55.4077 52.4485 54.2388 53.2909C53.07 54.1334 51.6657 54.5866 50.2249 54.5862H27.7241C24.0843 54.5862 20.5935 56.0321 18.0197 58.6059C15.4459 61.1797 14 64.6705 14 68.3103V150.655C14 154.295 15.4459 157.786 18.0197 160.36C20.5935 162.933 24.0843 164.379 27.7241 164.379H171.828C175.467 164.379 178.958 162.933 181.532 160.36C184.106 157.786 185.552 154.295 185.552 150.655V68.3103C185.552 64.6705 184.106 61.1797 181.532 58.6059C178.958 56.0321 175.467 54.5862 171.828 54.5862ZM99.7759 150.655C78.9701 150.655 62.0345 133.72 62.0345 112.914C62.0345 92.108 78.9701 75.1724 99.7759 75.1724C120.582 75.1724 137.517 92.108 137.517 112.914C137.517 133.72 120.582 150.655 99.7759 150.655ZM140.948 82.0345C139.128 82.0345 137.383 81.3115 136.096 80.0246C134.809 78.7377 134.086 76.9923 134.086 75.1724C134.086 73.3525 134.809 71.6071 136.096 70.3202C137.383 69.0333 139.128 68.3103 140.948 68.3103C142.768 68.3103 144.514 69.0333 145.801 70.3202C147.087 71.6071 147.81 73.3525 147.81 75.1724C147.81 76.9923 147.087 78.7377 145.801 80.0246C144.514 81.3115 142.768 82.0345 140.948 82.0345Z" fill="#BBBBBB"/>
<path d="M38.0172 47.7241H24.2931C23.3831 47.7241 22.5104 47.3626 21.867 46.7192C21.2236 46.0758 20.8621 45.2031 20.8621 44.2931C20.8621 43.3831 21.2236 42.5104 21.867 41.867C22.5104 41.2235 23.3831 40.8621 24.2931 40.8621H38.0172C38.9272 40.8621 39.7999 41.2235 40.4433 41.867C41.0868 42.5104 41.4483 43.3831 41.4483 44.2931C41.4483 45.2031 41.0868 46.0758 40.4433 46.7192C39.7999 47.3626 38.9272 47.7241 38.0172 47.7241Z" fill="#BBBBBB"/>
</svg>
