<svg width="149" height="149" viewBox="0 0 149 149" fill="none" xmlns="http://www.w3.org/2000/svg">
<path d="M65.1875 9.3125C30.4984 9.3125 2.32812 37.4828 2.32812 72.1719C2.32812 106.861 30.4984 135.031 65.1875 135.031C67.6553 135.031 70.0766 134.845 72.4699 134.566L72.5537 134.649L72.6468 134.547C102.912 130.957 126.562 105.832 127.912 74.9377L136.107 83.1327C136.543 83.5677 137.134 83.812 137.751 83.812C138.367 83.812 138.958 83.5677 139.394 83.1327L145.992 76.5441C146.429 76.1075 146.674 75.5154 146.674 74.8981C146.674 74.2808 146.429 73.6887 145.992 73.2521L124.699 51.9731C123.847 49.4876 122.84 47.0584 121.682 44.7C122.598 42.2216 123.08 39.6036 123.107 36.9613C123.098 30.7869 120.641 24.8679 116.275 20.5019C111.909 16.136 105.99 13.6794 99.816 13.6708C97.0203 13.6892 94.2514 14.2162 91.6443 15.2259C85.6481 12.4366 79.2466 10.6182 72.6794 9.83866L72.4093 9.60584V9.56859L72.2231 9.78744C69.9089 9.52669 67.5715 9.34975 65.1875 9.34975V9.3125ZM67.5156 14.0945C68.5633 14.141 69.6063 14.1829 70.6353 14.2807C74.1042 17.3073 77.3403 20.7017 80.1946 24.5198C77.805 28.2286 76.5284 32.5447 76.5162 36.9567C76.5162 37.0591 76.5348 37.1522 76.5394 37.25H67.5156V14.0945ZM62.8594 14.1224V37.25H42.6512C46.9164 28.2169 52.7553 20.3897 59.7397 14.2761C60.7641 14.1829 61.8164 14.1643 62.8594 14.1224ZM78.7651 15.6124C81.3726 16.2363 83.901 17.0558 86.3548 18.015C85.2047 18.8392 84.1245 19.7472 83.142 20.7622C81.7631 18.9807 80.3026 17.2638 78.7651 15.6171V15.6124ZM51.5354 15.6776C45.6683 22.0274 40.9129 29.3202 37.4688 37.25H18.7181C26.8206 26.4669 38.4233 18.8398 51.5354 15.6776ZM99.8207 18.327C102.269 18.3227 104.694 18.8018 106.956 19.7368C109.219 20.6718 111.274 22.0443 113.005 23.7756C114.736 25.5068 116.108 27.5628 117.042 29.8255C117.977 32.0883 118.455 34.5132 118.45 36.9613C118.45 37.5201 118.339 38.0509 118.287 38.605C113.105 30.4331 106.115 23.5607 97.8558 18.5179C98.5076 18.4481 99.1455 18.327 99.8207 18.327ZM91.5605 20.3152C99.4721 24.3558 106.358 30.1476 111.694 37.25H92.9248C90.9877 32.8257 88.6498 28.5879 85.9404 24.5897C87.5225 22.8178 89.4305 21.3667 91.5605 20.3152ZM83.0861 28.8548C84.795 31.5275 86.3781 34.3072 87.7703 37.25H81.205C81.205 37.1522 81.1771 37.0591 81.1771 36.9567C81.1771 34.0372 81.8941 31.3133 83.0861 28.8548ZM15.5519 41.9062H35.6017C32.3288 50.8679 30.5482 60.3057 30.3308 69.8438H7.10078C7.48276 59.9618 10.3925 50.343 15.5519 41.9062ZM40.677 41.9062H62.8594V69.8438H34.9871C35.239 60.2706 37.1648 50.8154 40.677 41.9062ZM67.5156 41.9062H77.0749C78.0241 46.1999 80.1666 50.1381 83.2557 53.2676C86.3448 56.3971 90.2549 58.5905 94.5358 59.5953C95.0341 62.9339 95.3274 66.3562 95.4252 69.8438H67.5156V41.9062ZM81.9221 41.9062H89.7259C91.3091 45.9292 92.6827 50.0873 93.6232 54.4781C90.8025 53.4833 88.2648 51.8201 86.227 49.6308C84.1893 47.4414 82.7122 44.791 81.9221 41.9062ZM94.7966 41.9062H114.879C115.484 42.898 116.052 43.9131 116.597 44.9421C115.101 48.1294 112.728 50.8248 109.757 52.713C106.785 54.6013 103.337 55.6044 99.816 55.6049C99.383 55.6049 98.9779 55.5025 98.5449 55.4746C97.6722 50.8565 96.4201 46.3184 94.8013 41.9062H94.7966ZM117.999 51.8567L141.042 74.9004L137.751 78.1924L114.702 55.144L117.999 51.8567ZM110.502 57.528L122.818 69.8438H100.081C99.9976 66.5844 99.7415 63.3762 99.3178 60.2332C99.4854 60.2332 99.6484 60.2565 99.8207 60.2565C103.685 60.2565 107.289 59.2089 110.502 57.528ZM7.10078 74.5H30.3308C30.5487 84.038 32.3292 93.4758 35.6017 102.438H15.5053C10.3617 93.9966 7.46806 84.3778 7.10078 74.5ZM34.9871 74.5H62.8594V102.438H40.6863C37.1701 93.5291 35.2413 84.0738 34.9871 74.5ZM67.5156 74.5H95.3088C94.8152 83.2677 92.4266 92.9108 88.2499 102.438H67.5156V74.5ZM99.9697 74.5H123.274C122.907 84.3778 120.013 93.9964 114.87 102.438H93.2973C97.2225 92.9853 99.518 83.4214 99.9743 74.5H99.9697ZM18.6669 107.094H37.4782C41.0681 115.261 45.8641 122.594 51.6332 128.755C38.4525 125.602 26.7938 117.939 18.6669 107.094ZM42.6652 107.094H62.8594V130.291C61.8443 130.254 60.8246 130.231 59.8235 130.138C52.8065 124.019 46.9443 116.159 42.6606 107.094H42.6652ZM67.5203 107.094H85.973C81.8123 115.457 76.5334 123.216 70.2814 130.156C69.3735 130.235 68.4422 130.259 67.5203 130.296V107.094ZM91.202 107.094H111.717C103.291 118.364 91.0609 126.193 77.2984 129.127C82.8014 122.369 87.4728 114.971 91.202 107.094Z" fill="#AD8200"/>
</svg>
