<svg width="144" height="144" viewBox="0 0 144 144" fill="none" xmlns="http://www.w3.org/2000/svg">
<path d="M144 72C144 111.765 111.765 144 72 144C32.2355 144 0 111.765 0 72C0 32.2355 32.2355 0 72 0C111.765 0 144 32.2355 144 72ZM11.6303 72C11.6303 105.341 38.6588 132.37 72 132.37C105.341 132.37 132.37 105.341 132.37 72C132.37 38.6588 105.341 11.6303 72 11.6303C38.6588 11.6303 11.6303 38.6588 11.6303 72Z" fill="url(#paint0_linear_29_136)"/>
<path d="M116.092 47.0292C115.547 46.9389 114.989 47.0685 114.539 47.3896C114.09 47.7107 113.787 48.1971 113.696 48.7417L112.958 53.1647C109.22 44.4943 102.831 37.2308 94.7092 32.4159C86.5871 27.6011 77.1488 25.4823 67.748 26.3636C58.3472 27.2448 49.467 31.0808 42.3813 37.3212C35.2955 43.5617 30.3683 51.886 28.3062 61.1001C28.1781 61.6377 28.2687 62.2042 28.5582 62.675C28.8477 63.1458 29.3124 63.4823 29.85 63.6105C30.3876 63.7387 30.9541 63.6481 31.4249 63.3585C31.8957 63.069 32.2322 62.6044 32.3604 62.0667C34.2307 53.6357 38.7454 46.0227 45.2462 40.3376C51.747 34.6526 59.8939 31.193 68.499 30.4632C77.1041 29.7334 85.7172 31.7716 93.0826 36.2806C100.448 40.7896 106.18 47.5336 109.444 55.5292L104.562 51.623C104.349 51.452 104.104 51.3248 103.841 51.2486C103.578 51.1724 103.303 51.1487 103.031 51.1788C102.759 51.209 102.495 51.2925 102.255 51.4244C102.016 51.5564 101.804 51.7343 101.633 51.948C101.462 52.1617 101.335 52.4069 101.259 52.6698C101.183 52.9326 101.159 53.2079 101.189 53.4799C101.219 53.7519 101.303 54.0153 101.435 54.255C101.567 54.4948 101.745 54.7062 101.958 54.8772L112.375 63.2105C112.742 63.5038 113.197 63.6646 113.667 63.6667C113.921 63.6674 114.173 63.6208 114.41 63.5292C114.75 63.3994 115.049 63.183 115.279 62.9016C115.509 62.6202 115.661 62.2835 115.721 61.9251L117.804 49.4251C117.895 48.8803 117.765 48.322 117.444 47.8727C117.123 47.4235 116.636 47.1201 116.092 47.0292ZM114.15 80.3897C113.614 80.2644 113.05 80.3565 112.582 80.6458C112.113 80.935 111.778 81.398 111.65 81.9334C109.777 90.3602 105.262 97.9687 98.7624 103.65C92.2632 109.332 84.1195 112.79 75.518 113.52C66.9164 114.25 58.3064 112.214 50.9426 107.709C43.5787 103.204 37.8458 96.4656 34.5792 88.4751L39.4583 92.3772C39.672 92.5482 39.9173 92.6754 40.1801 92.7516C40.4429 92.8278 40.7182 92.8515 40.9902 92.8213C41.2622 92.7911 41.5256 92.7077 41.7654 92.5757C42.0051 92.4437 42.2165 92.2658 42.3875 92.0522C42.5585 91.8385 42.6857 91.5932 42.7619 91.3304C42.8381 91.0675 42.8618 90.7923 42.8316 90.5203C42.8015 90.2483 42.718 89.9849 42.586 89.7451C42.4541 89.5054 42.2762 89.294 42.0625 89.123L31.6458 80.7897C31.3621 80.5628 31.024 80.414 30.6651 80.3582C30.3061 80.3023 29.9388 80.3413 29.5996 80.4712C29.2604 80.6011 28.961 80.8175 28.7312 81.0988C28.5014 81.3802 28.3492 81.7167 28.2896 82.0751L26.2062 94.5751C26.1159 95.1198 26.2455 95.6782 26.5666 96.1274C26.8877 96.5767 27.3741 96.8801 27.9187 96.9709C28.0281 96.9901 28.1389 96.9999 28.25 97.0001C28.7428 96.9994 29.2193 96.824 29.5951 96.5051C29.9708 96.1862 30.2213 95.7445 30.3021 95.2584L31.0417 90.8292C34.7781 99.5011 41.1655 106.766 49.2873 111.583C57.4091 116.399 66.8479 118.52 76.2493 117.639C85.6507 116.758 94.5316 112.922 101.618 106.681C108.704 100.44 113.631 92.115 115.692 82.9001C115.82 82.3627 115.73 81.7964 115.441 81.3256C115.152 80.8548 114.687 80.5182 114.15 80.3897Z" fill="#531B8A"/>
<path d="M74.75 88.2143V85.4286H80.25C80.9793 85.4286 81.6788 85.1351 82.1945 84.6127C82.7103 84.0902 83 83.3817 83 82.6429V71.5C83 70.7612 82.7103 70.0526 82.1945 69.5302C81.6788 69.0078 80.9793 68.7143 80.25 68.7143H66.5V63.1429H80.25C80.9793 63.1429 81.6788 62.8494 82.1945 62.3269C82.7103 61.8045 83 61.096 83 60.3571C83 59.6183 82.7103 58.9098 82.1945 58.3873C81.6788 57.8649 80.9793 57.5714 80.25 57.5714H74.75V54.7857C74.75 54.0469 74.4603 53.3383 73.9445 52.8159C73.4288 52.2935 72.7293 52 72 52C71.2707 52 70.5712 52.2935 70.0555 52.8159C69.5397 53.3383 69.25 54.0469 69.25 54.7857V57.5714H63.75C63.0207 57.5714 62.3212 57.8649 61.8055 58.3873C61.2897 58.9098 61 59.6183 61 60.3571V71.5C61 72.2388 61.2897 72.9474 61.8055 73.4698C62.3212 73.9922 63.0207 74.2857 63.75 74.2857H77.5V79.8571H63.75C63.0207 79.8571 62.3212 80.1506 61.8055 80.6731C61.2897 81.1955 61 81.904 61 82.6429C61 83.3817 61.2897 84.0902 61.8055 84.6127C62.3212 85.1351 63.0207 85.4286 63.75 85.4286H69.25V88.2143C69.25 88.9531 69.5397 89.6617 70.0555 90.1841C70.5712 90.7065 71.2707 91 72 91C72.7293 91 73.4288 90.7065 73.9445 90.1841C74.4603 89.6617 74.75 88.9531 74.75 88.2143Z" fill="#531B8A"/>
<defs>
<linearGradient id="paint0_linear_29_136" x1="72" y1="0" x2="72" y2="144" gradientUnits="userSpaceOnUse">
<stop offset="0.246643" stop-color="#531B8A"/>
<stop offset="1" stop-color="#9747FF"/>
</linearGradient>
</defs>
</svg>
