<svg width="144" height="144" viewBox="0 0 144 144" fill="none" xmlns="http://www.w3.org/2000/svg">
<path d="M144 72C144 111.765 111.765 144 72 144C32.2355 144 0 111.765 0 72C0 32.2355 32.2355 0 72 0C111.765 0 144 32.2355 144 72ZM11.6303 72C11.6303 105.341 38.6588 132.37 72 132.37C105.341 132.37 132.37 105.341 132.37 72C132.37 38.6588 105.341 11.6303 72 11.6303C38.6588 11.6303 11.6303 38.6588 11.6303 72Z" fill="url(#paint0_linear_29_138)"/>
<g clip-path="url(#clip0_29_138)">
<path d="M53.8985 100.501L116.434 83.928C117.483 83.6495 118.458 83.1445 119.291 82.4483C120.124 81.7522 120.795 80.8819 121.257 79.8984C121.718 78.9149 121.959 77.842 121.962 76.755C121.966 75.668 121.732 74.5932 121.276 73.606L118.705 68.0526C118.613 67.8154 118.474 67.5995 118.296 67.4182C118.118 67.2368 117.905 67.0939 117.67 66.9983C117.435 66.9027 117.182 66.8564 116.929 66.8623C116.675 66.8681 116.425 66.9261 116.195 67.0324C115.965 67.1388 115.758 67.2914 115.589 67.4808C115.42 67.6701 115.292 67.8922 115.212 68.1334C115.132 68.3745 115.102 68.6296 115.124 68.8827C115.147 69.1359 115.221 69.3819 115.342 69.6054L117.907 75.1624C118.136 75.657 118.254 76.1956 118.253 76.7405C118.251 77.2855 118.131 77.8234 117.9 78.3165C117.669 78.8097 117.333 79.246 116.915 79.5949C116.497 79.9438 116.008 80.1967 115.482 80.3359L52.9465 96.909C48.6526 98.069 44.0899 97.7163 40.022 95.91C35.9542 94.1037 32.6281 90.9533 30.6004 86.9861C30.3687 86.5577 29.9784 86.2373 29.5135 86.0939C29.0486 85.9505 28.5462 85.9955 28.1145 86.2193C27.6827 86.4431 27.356 86.8278 27.2048 87.2906C27.0535 87.7534 27.0897 88.2573 27.3056 88.694C29.7384 93.3972 33.6992 97.1303 38.534 99.2769C43.3688 101.424 48.7886 101.855 53.8985 100.501Z" fill="#531B8A"/>
<path d="M67.7762 89.1114L101.177 80.2596C101.653 80.1334 102.059 79.8232 102.306 79.397L105.863 73.2617L117.431 70.6364C117.695 70.5764 117.942 70.4594 118.156 70.2937C118.369 70.1279 118.544 69.9175 118.668 69.6769C118.792 69.4364 118.862 69.1716 118.873 68.9011C118.884 68.6306 118.836 68.3609 118.732 68.1109L109.964 47.0874C109.609 46.2173 108.978 45.4883 108.168 45.013C107.358 44.5378 106.415 44.3428 105.484 44.4581C104.553 44.5735 103.686 44.9928 103.018 45.6513C102.349 46.3097 101.916 47.1706 101.785 48.1009L100.976 53.6234C100.716 55.4036 99.9146 57.0601 98.6814 58.3677C97.4483 59.6753 95.8427 60.5706 94.0829 60.932C92.3231 61.2933 90.4944 61.1031 88.8454 60.3874C87.1963 59.6716 85.8068 58.4648 84.8658 56.9311L78.8284 47.0806C78.6822 46.8418 78.484 46.6392 78.2487 46.4878C78.0134 46.3363 77.747 46.2401 77.4694 46.2062C77.1918 46.1724 76.9103 46.2017 76.6457 46.2921C76.3812 46.3825 76.1405 46.5316 75.9417 46.7283L70.1959 52.4012C60.4007 62.0705 47.3612 69.9514 33.4789 74.5939C30.9992 75.4176 28.9292 77.1607 27.6936 79.4657C27.5327 79.7642 27.3873 80.07 27.2576 80.3775C27.0686 80.8313 27.067 81.3419 27.2532 81.7972C27.4394 82.2525 27.7981 82.6155 28.2507 82.8067C37.4313 86.6441 47.6143 87.3533 57.2313 84.8249C58.4475 84.5026 59.6535 84.1272 60.8166 83.7132C61.2365 83.5636 61.6829 83.5029 62.1275 83.535C62.5722 83.5671 63.0055 83.6912 63.3999 83.8996C63.7944 84.1079 64.1414 84.396 64.4191 84.7455C64.6968 85.095 64.8992 85.4983 65.0133 85.93L65.5062 87.7898C65.6325 88.2664 65.9426 88.6734 66.3683 88.9212C66.7941 89.1691 67.3005 89.2375 67.7762 89.1114ZM99.4712 76.8654L68.6176 85.0421L68.6009 84.9792C68.3548 84.0506 67.9191 83.183 67.3213 82.4314C66.7235 81.6797 65.9766 81.0602 65.1279 80.6121C64.2791 80.1639 63.347 79.8969 62.3903 79.8278C61.4336 79.7588 60.4732 79.8892 59.5697 80.2108C58.5016 80.5919 57.3946 80.9353 56.2788 81.231C48.161 83.3662 39.5861 82.9934 31.6792 80.1615C32.4619 79.213 33.4959 78.505 34.6626 78.1189C49.0723 73.3 62.6204 65.1074 72.8093 55.0472L76.8862 51.0167L81.7012 58.8699C83.0413 61.0535 85.0195 62.7717 87.3674 63.7912C89.7152 64.8106 92.3188 65.082 94.8247 64.5683C97.3305 64.0546 99.617 62.7808 101.374 60.9199C103.131 59.059 104.272 56.7011 104.644 54.1665L105.455 48.6359C105.471 48.5274 105.518 48.4259 105.591 48.3442C105.665 48.2612 105.761 48.2016 105.868 48.1727C106 48.1367 106.14 48.1504 106.263 48.2113C106.385 48.2721 106.481 48.3758 106.532 48.5027L114.447 67.504L104.244 69.8234C103.995 69.8797 103.761 69.9868 103.555 70.1378C103.35 70.2889 103.178 70.4807 103.05 70.7013L99.4712 76.8654Z" fill="#531B8A"/>
<path d="M54.4267 92.6492L67.7762 89.1113C68.252 88.9852 68.6581 88.675 68.9052 88.2489C69.1523 87.8227 69.2201 87.3156 69.0938 86.839C68.9675 86.3624 68.6574 85.9554 68.2317 85.7076C67.806 85.4597 67.2995 85.3913 66.8238 85.5174L53.5962 89.0229L32.9016 91.5976C32.6545 91.6212 32.4147 91.6942 32.1964 91.8123C31.9781 91.9303 31.7857 92.091 31.6305 92.285C31.4754 92.4789 31.3607 92.702 31.2932 92.9411C31.2257 93.1803 31.2069 93.4306 31.2377 93.6773C31.2685 93.924 31.3484 94.162 31.4727 94.3773C31.597 94.5926 31.7631 94.7807 31.9612 94.9307C32.1593 95.0806 32.3854 95.1892 32.626 95.2501C32.8667 95.311 33.1171 95.323 33.3624 95.2853L54.1784 92.6977C54.2622 92.6871 54.3451 92.6709 54.4267 92.6492ZM29.4288 89.6351C29.9046 89.5091 30.3106 89.1988 30.5577 88.7727C30.8048 88.3465 30.8727 87.8394 30.7464 87.3628L30.3973 86.0456C30.0213 84.6462 30.1224 83.1615 30.6846 81.827C30.8747 81.3724 30.8767 80.8606 30.69 80.4043C30.5034 79.9479 30.1434 79.5843 29.6893 79.3935C29.2353 79.2027 28.7243 79.2003 28.2687 79.3869C27.8132 79.5734 27.4505 79.9336 27.2604 80.3882C26.3798 82.4786 26.2212 84.8042 26.8097 86.9964L27.1611 88.3226C27.2894 88.797 27.6 89.2014 28.0249 89.4473C28.4499 89.6933 28.9546 89.7608 29.4288 89.6351ZM77.7247 86.4748C78.0609 86.3854 78.3651 86.2031 78.6027 85.9487C78.8402 85.6944 79.0016 85.3782 79.0683 85.0363C79.135 84.6944 79.1044 84.3405 78.98 84.0151C78.8556 83.6896 78.6423 83.4056 78.3646 83.1955C77.0374 82.1816 75.9427 80.8943 75.1547 79.4207C74.3667 77.947 73.9038 76.3213 73.7971 74.6536C73.6767 73.0025 73.9171 71.3454 74.5016 69.7975C75.0861 68.2496 76.0005 66.8482 77.1813 65.691L84.2418 58.6407C84.5733 58.2898 84.7552 57.8233 84.7489 57.3401C84.7426 56.8568 84.5486 56.3949 84.2081 56.0522C83.8676 55.7094 83.4073 55.5129 82.9249 55.5042C82.4424 55.4955 81.9757 55.6753 81.6237 56.0056L74.5577 63.0573C72.9989 64.5882 71.7921 66.4413 71.0215 68.4875C70.2508 70.5337 69.9348 72.7239 70.0954 74.9057C70.2394 77.105 70.8535 79.2481 71.8961 81.1898C72.9386 83.1316 74.3853 84.8268 76.1383 86.1606C76.362 86.3294 76.621 86.4454 76.8957 86.4998C77.1704 86.5542 77.4539 86.5457 77.7247 86.4748Z" fill="#531B8A"/>
<path d="M88.9289 83.5055C89.043 83.4762 89.1537 83.4352 89.2594 83.3833C89.4791 83.2778 89.676 83.1299 89.8386 82.9481C90.0012 82.7663 90.1264 82.5542 90.2071 82.3239C90.2878 82.0935 90.3224 81.8495 90.3088 81.6057C90.2953 81.3619 90.234 81.1231 90.1283 80.903C88.3097 77.1194 86.6298 74.4317 83.8654 72.7296C81.0069 70.9697 77.2619 70.4718 71.7268 71.1155C71.2379 71.1727 70.7918 71.422 70.4867 71.8087C70.1817 72.1954 70.0426 72.6878 70.1001 73.1775C70.1575 73.6672 70.4069 74.1142 70.7933 74.4201C71.1796 74.7259 71.6714 74.8657 72.1603 74.8085C81.5742 73.7118 83.7488 76.1799 86.7879 82.5113C86.9745 82.8999 87.2902 83.2115 87.6807 83.3928C88.0713 83.5742 88.5125 83.614 88.9289 83.5055ZM68.7643 63.7907C68.9924 63.7305 69.2067 63.6266 69.3955 63.4849C69.5912 63.3394 69.7563 63.1567 69.8814 62.9472C70.0066 62.7377 70.0892 62.5056 70.1247 62.264C70.1601 62.0224 70.1477 61.7762 70.0881 61.5393C70.0285 61.3025 69.9229 61.0797 69.7773 60.8836L67.3899 57.67C67.0958 57.2744 66.657 57.0117 66.17 56.9399C65.6829 56.8681 65.1874 56.993 64.7926 57.2871C64.3978 57.5812 64.136 58.0205 64.0647 58.5082C63.9934 58.996 64.1186 59.4923 64.4126 59.888L66.8001 63.1016C67.0214 63.3998 67.3268 63.6248 67.6769 63.7476C68.027 63.8705 68.4058 63.8855 68.7643 63.7907ZM62.5272 69.2976C62.755 69.2369 62.9693 69.1338 63.1589 68.9937C63.3544 68.8481 63.5193 68.6653 63.6442 68.4557C63.7691 68.2462 63.8516 68.0141 63.8869 67.7726C63.9222 67.5311 63.9096 67.2849 63.8499 67.0482C63.7902 66.8114 63.6846 66.5888 63.539 66.3928L60.769 62.6633C60.475 62.2676 60.0362 62.005 59.5491 61.9332C59.062 61.8614 58.5666 61.9863 58.1718 62.2804C57.777 62.5745 57.5151 63.0137 57.4439 63.5015C57.3726 63.9892 57.4977 64.4855 57.7917 64.8812L60.5558 68.6104C60.7779 68.9096 61.0847 69.1352 61.4362 69.2577C61.7878 69.3802 62.1679 69.3942 62.5272 69.2976ZM55.8117 73.0063C56.1049 72.9285 56.3745 72.7799 56.5969 72.5736C56.8194 72.3672 56.9879 72.1093 57.0877 71.8224C57.1875 71.5356 57.2155 71.2286 57.1694 70.9283C57.1232 70.6279 57.0043 70.3434 56.823 70.0997L54.3293 66.7392C54.1866 66.5365 54.0049 66.3643 53.7947 66.2329C53.5846 66.1015 53.3504 66.0135 53.1059 65.9741C52.8614 65.9347 52.6116 65.9447 52.3711 66.0035C52.1306 66.0623 51.9043 66.1687 51.7056 66.3165C51.5069 66.4643 51.3397 66.6504 51.2139 66.8639C51.0882 67.0774 51.0064 67.314 50.9733 67.5597C50.9403 67.8055 50.9567 68.0554 51.0216 68.2948C51.0865 68.5341 51.1985 68.7581 51.3511 68.9536L53.8447 72.3141C54.0659 72.6133 54.3716 72.8393 54.7223 72.9627C55.073 73.0861 55.4525 73.1013 55.8117 73.0063ZM75.0026 58.2815C75.2958 58.2037 75.5655 58.0551 75.7879 57.8487C76.0104 57.6423 76.1789 57.3844 76.2787 57.0976C76.3785 56.8108 76.4065 56.5038 76.3604 56.2034C76.3142 55.9031 76.1953 55.6186 76.0139 55.3749L73.5516 52.06C73.248 51.693 72.8154 51.4566 72.3431 51.3997C71.8708 51.3427 71.3948 51.4695 71.0135 51.754C70.6322 52.0384 70.3745 52.4587 70.2938 52.9281C70.2131 53.3975 70.3154 53.8802 70.5797 54.2765L73.042 57.5914C73.263 57.8891 73.5678 58.1139 73.9172 58.2368C74.2665 58.3598 74.6446 58.3754 75.0026 58.2815Z" fill="#531B8A"/>
</g>
<defs>
<linearGradient id="paint0_linear_29_138" x1="72" y1="0" x2="72" y2="144" gradientUnits="userSpaceOnUse">
<stop offset="0.246643" stop-color="#531B8A"/>
<stop offset="1" stop-color="#9747FF"/>
</linearGradient>
<clipPath id="clip0_29_138">
<rect width="94.858" height="46.577" fill="white" transform="matrix(-0.966631 0.256173 0.256173 0.966631 111.692 37)"/>
</clipPath>
</defs>
</svg>
