<svg width="49" height="49" viewBox="0 0 49 49" fill="none" xmlns="http://www.w3.org/2000/svg">
<path d="M41.0488 48.2314H8.75479C4.35106 48.2314 0.786133 44.6664 0.786133 40.2627V7.96866C0.786133 3.56493 4.35106 0 8.75479 0H40.8391C45.2429 0 48.8078 3.56493 48.8078 7.96866V40.053C49.0175 44.6664 45.4526 48.2314 41.0488 48.2314ZM8.75479 2.09702C5.39957 2.09702 2.88315 4.82314 2.88315 7.96866V40.053C2.88315 43.4082 5.60927 45.9246 8.75479 45.9246H40.8391C44.1944 45.9246 46.7108 43.1985 46.7108 40.053V7.96866C46.7108 4.61344 43.9847 2.09702 40.8391 2.09702H8.75479Z" fill="#AD8200"/>
<path d="M19.6592 36.4879C16.304 36.4879 13.1584 35.6491 10.2226 33.7618C9.80321 33.5521 9.59351 32.923 9.80321 32.5036C10.0129 32.0842 10.4323 31.6648 10.8517 31.8745C12.739 32.0842 14.8361 31.8745 16.5137 31.0357C14.8361 30.1969 13.3681 28.729 12.9487 27.0514C12.739 26.632 12.9487 26.4223 13.1584 26.0029C11.6905 24.7447 10.8517 22.8573 10.8517 20.97C10.8517 20.5506 11.0614 20.1312 11.2711 20.1312C11.2711 20.1312 11.4808 20.1312 11.4808 19.9215C11.2711 18.873 11.0614 17.8245 11.0614 16.776C11.0614 15.5178 11.4808 14.4693 11.9002 13.4208C12.1099 13.0014 12.3196 12.7917 12.739 12.7917C13.1584 12.7917 13.3681 13.0014 13.5778 13.2111C16.0943 16.1469 19.6592 18.2439 23.4338 18.6633V18.4536C23.4338 14.679 26.5793 11.7432 30.1443 11.7432C31.8219 11.7432 33.4995 12.3723 34.7577 13.4208C35.8062 13.2111 36.645 12.7917 37.4838 12.3723C37.9032 12.1626 38.3226 12.1626 38.742 12.3723C39.1614 12.582 39.1614 13.0014 39.1614 13.4208C39.1614 13.6305 38.9517 14.0499 38.742 14.2596C39.1614 14.2596 39.3711 14.2596 39.7905 14.679C40.0002 15.0984 40.2099 15.5178 39.7905 15.9372C38.9517 16.9857 38.1129 18.0342 37.0644 18.873V19.0827C37.0644 27.6805 30.5637 36.4879 19.6592 36.4879ZM15.0458 33.5521C16.5137 33.9715 17.9816 34.1812 19.6592 34.1812C29.3055 34.1812 34.9674 26.4223 34.9674 19.0827V18.4536C34.9674 18.0342 35.1771 17.8245 35.3868 17.6148C35.3868 17.6148 35.5965 17.6148 35.5965 17.4051C35.1771 17.4051 34.7577 17.1954 34.548 16.776C34.3383 16.3566 34.548 15.9372 34.7577 15.7275H34.548C34.1286 15.7275 33.9189 15.7275 33.4995 15.5178C32.6607 14.679 31.4025 14.0499 30.1443 14.0499C27.6279 14.0499 25.5308 16.1469 25.5308 18.6633C25.5308 19.0827 25.5308 19.2924 25.7405 19.7118C25.7405 20.1312 25.7405 20.3409 25.5308 20.5506C25.3211 20.7603 24.9017 20.97 24.692 20.97C20.2883 20.7603 16.304 18.873 13.1584 15.9372V16.776C13.1584 18.2439 13.9972 19.7118 15.2555 20.5506C15.6749 20.7603 15.8846 21.3894 15.6749 21.8088C15.4652 22.2282 15.0458 22.6476 14.6264 22.4379C14.2069 22.4379 13.7875 22.4379 13.3681 22.2282C13.9972 23.6962 15.2555 24.9544 16.9331 25.1641C17.3525 25.1641 17.7719 25.5835 17.7719 26.2126C17.7719 26.632 17.5622 27.0514 16.9331 27.2611C16.5137 27.2611 16.304 27.4708 15.8846 27.4708C16.7234 28.5193 17.9816 29.1484 19.4495 29.1484C19.8689 29.1484 20.2883 29.3581 20.498 29.7775C20.7077 30.1969 20.498 30.6163 20.0786 31.0357C18.6107 32.5036 16.9331 33.1327 15.0458 33.5521Z" fill="#AD8200"/>
</svg>
