<svg width="175" height="175" viewBox="0 0 175 175" fill="none" xmlns="http://www.w3.org/2000/svg">
<g clip-path="url(#clip0_39_138)">
<path d="M136.85 101.85C141.925 97.65 145.25 91.175 145.25 84C145.25 71.925 135.45 61.25 124.25 61.25C113.05 61.25 103.25 71.925 103.25 84C103.25 91.175 106.575 97.65 111.65 101.85C109.375 102.725 107.275 103.6 105.175 104.825C98.525 96.95 89.775 90.825 79.625 87.85C87.325 82.425 92.75 73.15 92.75 63C92.75 47.075 79.625 33.25 64.75 33.25C49.875 33.25 36.75 47.075 36.75 63C36.75 73.15 42.175 82.425 49.875 87.85C28.175 94.325 12.25 114.45 12.25 138.25C12.25 140.175 13.825 141.75 15.75 141.75H159.25C161.175 141.75 162.75 140.175 162.75 138.25C162.75 121.45 151.9 107.1 136.85 101.85ZM110.25 84C110.25 76.65 116.375 68.25 124.25 68.25C132.125 68.25 138.25 76.65 138.25 84C138.25 91.35 132.125 99.75 124.25 99.75C116.375 99.75 110.25 91.35 110.25 84ZM43.75 63C43.75 52.325 52.675 40.25 64.75 40.25C76.825 40.25 85.75 52.325 85.75 63C85.75 73.675 76.825 85.75 64.75 85.75C52.675 85.75 43.75 73.675 43.75 63ZM19.425 134.75C21.175 111.3 40.95 92.75 64.75 92.75C88.725 92.75 108.325 111.3 110.075 134.75H19.425ZM117.075 134.75C116.55 126 113.75 117.6 109.2 110.6C113.75 108.15 118.825 106.75 124.25 106.75C140.525 106.75 153.825 119 155.575 134.75H117.075Z" fill="#AD8200"/>
<path d="M1897 -1382.5V1564.5H-1225V-1382.5H1897ZM1911 -1396.5H-1239V1578.5H1911V-1396.5Z" fill="#0000FF"/>
</g>
<defs>
<clipPath id="clip0_39_138">
<rect width="175" height="175" fill="white"/>
</clipPath>
</defs>
</svg>
