<svg width="130" height="130" viewBox="0 0 130 130" fill="none" xmlns="http://www.w3.org/2000/svg">
<path d="M84.7601 102.44C85.2801 102.96 86.0601 103.22 86.5801 103.22C87.3601 103.22 87.8801 102.96 88.4001 102.44L107.12 83.72C108.16 82.68 108.16 81.12 107.12 80.08C106.08 79.04 104.52 79.04 103.48 80.08L86.5801 96.98L79.0401 89.44C78.0001 88.4 76.4401 88.4 75.4001 89.44C74.3601 90.48 74.3601 92.04 75.4001 93.08L84.7601 102.44ZM80.6001 25.74C80.6001 11.96 71.2401 2.6 57.7201 2.6C43.9401 2.6 34.8401 11.96 34.8401 25.74C34.8401 39.52 44.2001 54.86 57.7201 54.86C71.2401 54.86 80.6001 39.52 80.6001 25.74ZM40.0401 25.74C40.0401 14.82 46.8001 7.8 57.7201 7.8C68.6401 7.8 75.4001 14.82 75.4001 25.74C75.4001 38.22 67.0801 49.66 57.7201 49.66C48.3601 49.66 40.0401 38.48 40.0401 25.74Z" fill="#AD8200"/>
<path d="M13 108.42H59.8C66.04 119.6 77.74 127.4 91.52 127.4C111.28 127.4 127.4 111.28 127.4 91.26C127.4 71.24 111.28 55.12 91.26 55.12C82.94 55.12 75.14 57.98 68.9 62.92C66.04 62.66 63.18 62.4 59.8 62.4C55.64 62.4 51.48 62.4 47.58 62.66C36.92 63.44 27.82 65.78 20.8 69.94C10.92 75.4 4.94004 83.72 2.60004 94.9C1.82004 98.28 2.86004 101.92 4.94004 104.52C7.02004 107.12 9.88004 108.42 13 108.42ZM122.2 91.26C122.2 108.42 108.42 122.2 91.26 122.2C74.1 122.2 60.32 108.42 60.32 91.26C60.32 74.1 74.1 60.32 91.26 60.32C108.42 60.32 122.2 74.36 122.2 91.26ZM8.06004 96.2C10.14 86.06 15.6 79.56 22.36 75.4C31.2 69.94 42.64 68.38 53.04 67.86C55.12 67.86 57.46 67.86 59.8 67.86C61.1 67.86 62.66 67.86 63.96 68.12C58.5 74.36 55.38 82.68 55.38 91.52C55.38 95.68 56.16 99.84 57.46 103.48H13C11.7 103.48 10.14 102.96 9.10004 101.66C8.06004 100.1 7.54004 98.02 8.06004 96.2Z" fill="#AD8200"/>
</svg>
